<?xml version="1.0" encoding="UTF-8" standalone="no"?>
<!-- Created with Inkscape (http://www.inkscape.org/) -->

<svg
   width="51.832737mm"
   height="71.25914mm"
   viewBox="0 0 51.832737 71.25914"
   version="1.1"
   id="svg1"
   xml:space="preserve"
   xmlns="http://www.w3.org/2000/svg"
   xmlns:svg="http://www.w3.org/2000/svg"><defs
     id="defs1"><linearGradient
       id="swatch30"><stop
         style="stop-color:#00000f;stop-opacity:1;"
         offset="0"
         id="stop30" /></linearGradient></defs><g
     id="layer1"
     transform="translate(-235.96197,-50.452578)"><g
       id="g179"
       transform="translate(-4.3644056,-73.103794)"
       style="fill:#000000"><g
         id="g178"
         transform="matrix(1.0851587,0,0,1.0851587,220.95763,-41.984037)"
         style="fill:#000000"><g
           id="g177"
           transform="matrix(1.0313678,0,0,1.0313678,-2.5949421,-4.8674802)"
           style="fill:#000000"><g
             id="g176"
             style="fill:#000000"><g
               id="g180"><path
                 style="fill:#000000;fill-opacity:1;stroke:none;stroke-width:1.26934;stroke-opacity:1"
                 d="m 152.51454,64.177266 c -3.0501,-0.919435 -4.26469,-4.91961 -2.52761,-8.324566 0.36552,-0.716481 0.41213,-1.073963 0.23993,-1.84037 -0.42658,-1.898558 0.36697,-3.43151 2.21879,-4.286181 1.02046,-0.470971 2.59254,-0.576535 3.47199,-0.233142 0.61977,0.242 1.50445,1.024712 1.68088,1.487145 0.0829,0.217282 0.23483,0.150202 0.51261,-0.226333 0.59573,-0.807507 2.09629,-1.474538 3.31713,-1.474538 2.90683,0 4.74025,2.193945 3.86573,4.625882 -0.31878,0.8865 -0.30988,1.052757 0.10772,2.012257 0.58633,1.347192 0.78912,3.893391 0.40321,5.06272 -0.66501,2.014988 -3.05643,3.664247 -4.83055,3.33142 -1.04946,-0.196881 -2.14888,-1.11383 -2.7513,-2.294668 -0.25702,-0.503793 -0.51691,-0.915988 -0.57754,-0.915988 -0.0606,0 -0.25875,0.345783 -0.44027,0.768405 -0.84236,1.961277 -2.74129,2.895601 -4.69072,2.307957 z m 2.26698,-1.03956 c 1.26579,-0.52888 2.01672,-2.101888 2.36806,-4.960475 0.13641,-1.109911 0.12268,-1.14457 -0.38981,-0.984105 -1.57354,0.492689 -2.19022,-0.123495 -0.73296,-0.73238 1.51658,-0.63367 3.86646,-0.151351 3.86646,0.793602 0,0.339426 -0.4771,0.319353 -1.47054,-0.06187 -0.27638,-0.106054 -0.30189,0.157196 -0.15154,1.564278 0.34058,3.187465 1.8284,4.988519 3.81331,4.616147 2.72334,-0.510901 3.87073,-3.960256 2.40429,-7.227918 -0.58539,-1.304428 -0.59754,-1.409911 -0.24162,-2.098175 1.04797,-2.026564 -0.28043,-3.821803 -2.82797,-3.821803 -0.61079,0 -1.40143,0.179051 -1.78117,0.403368 -0.7353,0.434353 -1.39979,1.591696 -1.39979,2.438021 0,0.530981 0.18934,0.548605 1.24127,0.115549 0.6931,-0.285334 0.51077,0.705885 -0.18844,1.024466 -1.32415,0.60332 -4.00823,0.149082 -4.00823,-0.678329 0,-0.3534 0.19193,-0.36583 1.37148,-0.08882 0.61662,0.14481 0.65323,0.112781 0.53198,-0.465424 -0.0716,-0.341517 -0.1847,-0.88398 -0.2513,-1.205475 -0.21775,-1.051267 -1.00509,-1.543354 -2.46937,-1.543354 -2.4217,0 -3.9642,1.713837 -3.31444,3.682616 0.24638,0.746561 0.20971,1.002319 -0.31362,2.187001 -1.37552,3.11383 -0.90006,5.551033 1.35068,6.923517 0.87008,0.53057 1.53609,0.561277 2.59327,0.119561 z m 11.96829,0.800387 c -0.26007,-0.260075 -0.47286,-0.685655 -0.47286,-0.94573 0,-0.586074 0.80164,-1.418594 1.36599,-1.418594 0.75449,0 1.4712,0.691075 1.4712,1.418594 0,1.242982 -1.47648,1.833575 -2.36433,0.94573 z m 1.53681,-0.948967 c 0,-0.429958 -0.14316,-0.608174 -0.53303,-0.663534 -0.64322,-0.09135 -0.9492,0.517414 -0.52,1.034572 0.44298,0.533758 1.05303,0.318805 1.05303,-0.371038 z m 5.84106,0.973974 c -1.79465,-0.619881 -2.87835,-1.595803 -3.83138,-3.450343 -0.7676,-1.493704 -0.82743,-1.766068 -0.82632,-3.762017 0.001,-2.526757 0.44841,-3.741921 1.99284,-5.417427 1.41225,-1.532112 2.93852,-2.12329 5.19687,-2.012926 3.65528,0.178634 6.11084,2.430209 6.59046,6.042987 0.39798,2.9978 -0.47724,5.621975 -2.45595,7.363709 -1.84952,1.628015 -4.24551,2.072248 -6.66652,1.236017 z m 5.03765,-1.214901 c 4.49802,-2.231471 4.34513,-9.946935 -0.23925,-12.074001 -1.39155,-0.645655 -3.69531,-0.595456 -5.21827,0.113708 -2.8243,1.315128 -4.09776,4.842697 -3.03732,8.41359 0.44139,1.486318 2.31843,3.529042 3.64516,3.966917 1.31983,0.435597 3.50654,0.246124 4.84968,-0.420211 z M 175.856,58.559254 c 0.24511,-0.900985 0.25652,-2.649119 0.0224,-3.42827 -0.15825,-0.526586 -0.1208,-0.65019 0.19695,-0.65019 0.4684,0 1.07752,1.336543 1.07752,2.364325 0,1.030311 -0.60905,2.364326 -1.07945,2.364326 -0.31538,0 -0.35888,-0.130109 -0.21739,-0.650191 z m 8.1664,5.223472 c -0.76015,-0.966374 -0.16418,-2.208957 1.05947,-2.208957 1.19408,0 1.74721,1.782123 0.76636,2.469133 -0.75468,0.528602 -1.26227,0.456273 -1.82583,-0.260176 z m 1.52379,-0.7936 c 0,-0.419063 -0.1441,-0.608404 -0.50188,-0.659452 -0.60093,-0.08574 -0.93052,0.573372 -0.52878,1.057445 0.42392,0.510786 1.03066,0.27649 1.03066,-0.397993 z m 5.87387,1.189971 c -2.95693,-0.628229 -4.65096,-2.442841 -4.67773,-5.01068 -0.0161,-1.545439 0.48561,-2.433144 1.73567,-3.071005 1.08683,-0.554567 1.08564,-0.549949 0.38081,-1.474022 -2.01739,-2.644933 -0.22736,-5.092205 3.88241,-5.307909 3.50451,-0.183936 5.82393,0.936302 6.08806,2.94042 0.11126,0.844158 0.0313,1.076444 -0.6297,1.829276 l -0.75714,0.862334 0.74146,0.623897 c 1.82796,1.538124 2.25988,3.969312 1.05259,5.924749 -1.29951,2.10479 -4.8315,3.317121 -7.81643,2.68294 z m 4.79301,-1.30052 c 2.08048,-0.867809 3.24575,-2.858346 2.71342,-4.635116 -0.32672,-1.090497 -1.92389,-2.58438 -3.62188,-3.387655 -1.3953,-0.660087 -2.16449,-1.683136 -1.46677,-1.950875 0.22546,-0.08652 0.50923,0.05989 0.73172,0.377544 1.23032,1.756522 4.0704,0.39862 3.19316,-1.526715 -0.41681,-0.914795 -1.59903,-1.369742 -3.85427,-1.483222 -4.11665,-0.207143 -5.9849,1.391152 -4.39452,3.759536 0.40849,0.608322 0.97212,0.975578 2.3215,1.512666 2.44983,0.975093 3.00475,1.39254 3.62192,2.724621 0.49646,1.071563 0.5608,1.124471 0.92479,0.760478 0.30798,-0.307974 0.45262,-0.3298 0.67985,-0.10258 0.22721,0.22722 0.15979,0.417465 -0.31689,0.894147 -0.73706,0.73706 -2.2415,0.999415 -2.90079,0.505858 -0.59293,-0.443882 -0.27369,-0.965903 0.47567,-0.777826 0.66609,0.167177 0.7115,-0.08623 0.20282,-1.131778 -0.49357,-1.014496 -1.29692,-1.548827 -2.80382,-1.864903 -1.08095,-0.226731 -1.43249,-0.204045 -2.3667,0.152733 -3.12866,1.194847 -1.9994,5.39284 1.7356,6.452034 1.33094,0.377436 3.88482,0.238439 5.12519,-0.278944 z"
                 id="path174"
                 transform="matrix(0.91297415,0,0,0.91297415,-116.38385,157.51454)" /><path
                 id="path175"
                 style="fill:#000000"
                 d="m 27.429861,161.78088 c -1.131259,0 -1.528488,0.16878 -2.106848,0.89452 -0.663909,0.83306 -0.699798,1.12851 -0.520898,4.30929 0.16884,3.00177 0.976931,6.72852 1.592151,7.34374 0.115999,0.116 0.0096,0.5234 -0.236162,0.90537 -0.245709,0.38197 -0.758149,1.71928 -1.138948,2.9714 -1.725289,5.67292 -2.079655,6.63882 -3.439584,9.37565 -2.004628,4.03429 -1.904294,6.41013 0.337964,8.00158 0.36086,0.25612 1.533827,1.40763 2.607076,2.55902 1.073249,1.1514 2.683191,2.51401 3.57756,3.02772 h 5.16e-4 c 1.436379,0.82501 3.414779,1.26363 3.414779,0.75706 0,-0.10065 -0.914475,-0.5983 -2.032434,-1.10588 -1.481669,-0.67269 -2.837617,-1.7105 -5.001245,-3.8287 -1.632539,-1.59825 -3.1322,-3.21297 -3.33313,-3.58841 -0.677889,-1.26666 -0.372712,-2.63906 1.407666,-6.32417 0.975319,-2.01875 1.922955,-4.34614 2.105815,-5.17229 0.182849,-0.82615 0.506032,-1.92423 0.718302,-2.43964 0.21227,-0.51542 0.366515,-1.03426 0.342615,-1.15342 -0.09718,-0.48477 2.574201,-5.24301 3.932059,-7.00371 0.80003,-1.03737 2.314471,-2.67319 3.36517,-3.63544 1.050699,-0.96223 2.323715,-2.13315 2.829284,-2.6019 l 0.919324,-0.85215 -0.209806,0.84233 c -0.16712,0.67147 -0.04224,0.95156 0.614433,1.38183 0.453109,0.29688 1.121647,0.54001 1.485697,0.54001 0.36404,0 0.661975,0.0785 0.661975,0.17415 0,0.32016 -1.097967,1.91233 -3.691764,5.35472 -2.546888,3.38013 -2.59139,3.41912 -4.400248,3.82302 -1.158649,0.25871 -2.081287,0.6951 -2.520777,1.19269 -0.717219,0.81206 -1.452804,3.65808 -2.066024,7.99331 -0.189769,1.34156 -0.432188,2.84175 -0.538468,3.33365 -0.10627,0.49191 -0.05255,0.89452 0.118856,0.89452 0.427779,0 0.968718,-2.016 1.222147,-4.55321 0.11613,-1.16268 0.405359,-2.84597 0.642339,-3.74034 0.236979,-0.89437 0.522103,-2.02593 0.633553,-2.51458 0.290979,-1.27576 1.73239,-1.89784 4.572847,-1.97404 1.317129,-0.0353 2.494832,0.0358 2.617411,0.15813 0.12258,0.12233 -0.07164,0.53872 -0.432015,0.92553 -0.840169,0.90181 -1.746675,3.47034 -2.794144,7.91579 -0.55332,2.34836 -0.733641,3.71296 -0.536402,4.06539 0.25461,0.45495 0.340478,0.41461 0.600997,-0.28267 0.16707,-0.44719 0.40414,-1.54476 0.5271,-2.43913 0.381389,-2.77407 2.067418,-7.79312 2.931087,-8.72505 1.179219,-1.27239 2.727661,-1.18979 4.229199,0.22634 l 1.161687,1.09606 -0.459921,1.3038 c -0.253029,0.71716 -0.559395,2.16305 -0.681095,3.21324 -0.1217,1.0502 -0.427399,2.73588 -0.679028,3.7455 -0.53697,2.15456 -0.562027,2.55489 -0.158647,2.55489 0.448679,0 1.245889,-2.81092 1.475879,-5.20382 0.28455,-2.96048 1.045615,-5.44884 1.788004,-5.84615 0.906029,-0.4849 2.109878,-0.40924 3.419947,0.21549 1.263298,0.60243 1.793789,1.82602 1.796789,4.14806 0.0017,1.19671 -0.03013,1.24003 -0.47594,0.65061 -0.431999,-0.57118 -0.478174,-0.36796 -0.483174,2.1332 -0.0059,2.75531 0.201202,4.23148 0.592212,4.22248 0.113289,-0.003 0.425694,-0.14891 0.694014,-0.32504 0.42777,-0.28109 0.428705,-0.35793 0.0088,-0.62787 -0.26319,-0.16915 -0.384798,-0.4012 -0.270268,-0.51573 0.11452,-0.11452 0.680722,0.24331 1.258321,0.7953 0.57761,0.55199 1.101887,1.00356 1.164787,1.00356 0.43381,0 -0.09534,-0.84114 -1.324984,-2.10633 -1.359058,-1.39838 -1.420463,-1.5399 -1.096573,-2.53318 0.188659,-0.57859 0.413394,-1.60598 0.499194,-2.28307 l 0.156063,-1.23093 1.26969,1.70222 c 1.672068,2.24107 3.309297,5.63476 3.074747,6.37377 -0.138569,0.4366 0.06751,0.68172 0.809253,0.9617 0.5474,0.20657 0.941733,0.27526 0.876433,0.15245 -0.06528,-0.12282 -0.3822,-0.80896 -0.70435,-1.52446 -1.619909,-3.59782 -2.269233,-4.74017 -3.923792,-6.90294 -0.988839,-1.29256 -1.797823,-2.56511 -1.797823,-2.82773 0,-0.26261 -0.329278,-0.85477 -0.731738,-1.31568 -0.590539,-0.67631 -1.328085,-0.9511 -3.821472,-1.42369 -3.542017,-0.67134 -5.104972,-1.37486 -5.528862,-2.48977 -0.163459,-0.42993 -0.68006,-1.38844 -1.14825,-2.1301 l -0.851628,-1.34876 1.353923,-1.60558 c 1.588808,-1.88423 3.23773,-4.99063 3.24373,-6.11074 0.006,-1.14638 -0.896344,-1.97714 -2.147673,-1.97714 -0.790859,0 -1.57317,0.39842 -2.957959,1.50585 -1.035489,0.8281 -2.049886,1.71238 -2.254126,1.96525 -0.30588,0.37872 -0.495604,0.25828 -1.077453,-0.68316 -0.38849,-0.6286 -1.376476,-1.7324 -2.195215,-2.45308 -1.243959,-1.09498 -1.717503,-1.31051 -2.882512,-1.31051 z m -0.03772,0.62838 c 1.081444,0.0647 2.423574,1.00228 3.744992,2.71508 1.340328,1.73732 1.658731,2.51096 1.034562,2.51096 -0.17659,0 -1.188076,1.06116 -2.247925,2.358 -1.059849,1.29683 -2.197698,2.69631 -2.528528,3.1104 l -0.601514,0.75293 -0.597379,-2.31976 c -0.898009,-3.48598 -1.08392,-7.24918 -0.408761,-8.2796 0.400414,-0.6111 0.955688,-0.8868 1.604553,-0.84801 z m 11.42721,1.03818 c 0.287125,-0.04 0.565463,0.0958 0.967383,0.38964 0.553269,0.40456 0.556403,0.49195 0.05374,1.464 -0.547939,1.05958 -1.222248,1.26628 -2.225187,0.68212 -0.771749,-0.44949 -0.715408,-1.02418 0.183451,-1.86862 0.43734,-0.41085 0.733485,-0.62712 1.02061,-0.66714 z m -2.800863,9.73377 0.839226,1.43144 c 0.461399,0.78733 0.838708,1.58852 0.838708,1.78026 0,0.41731 -0.68245,0.38959 -2.458248,-0.10026 l -1.319299,-0.36432 1.049548,-1.37356 z m -8.142138,19.18798 c -0.07588,0.007 -0.166699,0.15286 -0.329179,0.44235 -0.27624,0.4922 -0.225063,0.71197 0.246496,1.05678 0.65439,0.47851 1.127902,0.53774 1.908411,0.23823 0.837629,-0.32143 0.586912,-0.77824 -0.426847,-0.77824 -0.59572,0 -1.021296,-0.20912 -1.160136,-0.56948 -0.102135,-0.26508 -0.162867,-0.39664 -0.238745,-0.38964 z m 9.476424,0.49041 c -0.219385,-0.002 -0.525949,0.008 -0.933277,0.0217 -1.692558,0.0564 -2.159621,0.40189 -1.104842,0.81753 0.937479,0.36942 1.285591,0.31901 2.04587,-0.29663 0.526222,-0.42609 0.650403,-0.53682 -0.0078,-0.5426 z m 4.501017,0.29972 c -0.740609,0.0349 -0.791961,0.33669 -0.01085,0.79737 0.31303,0.18458 1.008496,0.24775 1.545125,0.14056 1.767529,-0.35305 1.611024,-0.59412 -0.569474,-0.87953 -0.39485,-0.0517 -0.717929,-0.07 -0.964799,-0.0584 z" /><path
                 id="path176"
                 style="fill:#ff0000"
                 d="m 30.797752,152.6326 c -0.310574,-0.0104 -0.652761,0.004 -1.033012,0.0429 -2.144116,0.21692 -3.596236,2.38727 -3.180168,4.75371 0.23586,1.34151 1.372103,2.76277 4.041097,5.05447 v 5.2e-4 c 1.320868,1.13416 2.500706,2.06248 2.621546,2.06448 0.864278,0.01 6.225978,-4.90563 6.719486,-6.16035 0.989768,-2.51651 -0.483899,-5.32782 -2.953825,-5.6348 -1.477526,-0.18361 -2.256842,-0.006 -3.01687,0.68575 -0.590378,0.53728 -0.591334,0.53741 -1.112594,0.004 -0.510043,-0.52182 -1.153941,-0.77954 -2.08566,-0.8108 z m -0.415479,0.52761 c 0.783786,-0.002 1.588314,0.31257 2.273246,0.98392 l 0.729155,0.71469 0.820105,-0.76791 c 0.698458,-0.65404 1.029451,-0.76518 2.236039,-0.75138 1.681206,0.0192 2.60309,0.72086 3.06648,2.33422 0.578938,2.01565 -0.366848,3.51859 -4.16047,6.61149 -0.993518,0.80999 -1.907461,1.47119 -2.031401,1.47019 -0.366028,-0.004 -1.605713,-1.05322 -3.772379,-3.1936 -2.328096,-2.29989 -2.804197,-3.33732 -2.260327,-4.92425 0.544073,-1.58746 1.793242,-2.47333 3.099552,-2.47737 z" /></g></g></g></g></g></g></svg>
