<?xml version="1.0" encoding="UTF-8" standalone="no"?>
<!-- Created with Inkscape (http://www.inkscape.org/) -->

<svg
   width="210mm"
   height="297mm"
   viewBox="0 0 210 297"
   version="1.1"
   id="svg1"
   inkscape:version="1.3.2 (091e20e, 2023-11-25)"
   sodipodi:docname="full-hand.svg"
   xmlns:inkscape="http://www.inkscape.org/namespaces/inkscape"
   xmlns:sodipodi="http://sodipodi.sourceforge.net/DTD/sodipodi-0.dtd"
   xmlns="http://www.w3.org/2000/svg"
   xmlns:svg="http://www.w3.org/2000/svg">
  <sodipodi:namedview
     id="namedview1"
     pagecolor="#ffffff"
     bordercolor="#666666"
     borderopacity="1.0"
     inkscape:showpageshadow="2"
     inkscape:pageopacity="0.0"
     inkscape:pagecheckerboard="0"
     inkscape:deskcolor="#d1d1d1"
     inkscape:document-units="mm"
     inkscape:zoom="0.70381561"
     inkscape:cx="397.12106"
     inkscape:cy="560.51613"
     inkscape:window-width="1680"
     inkscape:window-height="1050"
     inkscape:window-x="0"
     inkscape:window-y="0"
     inkscape:window-maximized="0"
     inkscape:current-layer="layer1" />
  <defs
     id="defs1" />
  <g
     inkscape:label="Layer 1"
     inkscape:groupmode="layer"
     id="layer1">
    <g
       id="g8"
       transform="matrix(2.5271918,0,0,2.5271918,-43.366981,-321.64993)"
       inkscape:export-filename="full-hand.png"
       inkscape:export-xdpi="96"
       inkscape:export-ydpi="96">
      <path
         id="rect2"
         style="fill:#f999b7;fill-opacity:1;stroke:#f95b99;stroke-width:6.13;stroke-linecap:square;stroke-opacity:1;paint-order:markers stroke fill"
         d="m 48.16069,159.69859 c -0.944236,-0.0391 -1.879899,0.33343 -2.873727,1.11518 -1.875056,1.47491 -1.955991,3.69926 -0.361735,9.93272 0.62693,2.45128 1.147459,5.50561 1.156519,6.7877 l 0.01602,2.33113 2.121317,-2.50889 c 1.166438,-1.37998 3.210649,-3.80135 4.542875,-5.38055 1.332228,-1.57922 2.422075,-3.21008 2.422075,-3.62407 0,-1.53581 -2.463335,-5.92285 -4.097941,-7.29827 -1.028538,-0.86545 -1.981168,-1.31587 -2.925403,-1.35495 z" />
      <path
         id="path8"
         style="fill:#f999b7;fill-opacity:1;stroke:#f95b99;stroke-width:6.13;stroke-linecap:square;stroke-opacity:1;paint-order:markers stroke fill"
         d="m 69.058122,158.72759 c -1.640718,0.0604 -3.744043,1.22482 -5.952091,3.34605 -5.147306,4.94492 -21.736088,25.65534 -26.095048,32.57889 -1.434788,2.27894 -1.774916,3.42534 -1.775086,5.98464 -1.9e-4,2.76491 0.536279,4.28383 4.236951,11.99979 4.58839,9.56687 5.69863,13.65226 5.117,18.83037 -0.401198,3.57185 -0.143911,3.95241 3.470073,5.13251 5.17084,1.6885 13.741408,1.78633 19.432922,0.22169 3.736736,-1.02726 5.322034,-2.66759 8.120951,-8.40414 2.455768,-5.03323 3.260276,-8.45575 2.645317,-11.25564 l -0.388607,-1.7694 -1.369425,1.28622 c -2.200948,2.06768 -1.586562,0.35464 1.457275,-4.06383 4.677075,-6.78929 5.628691,-11.7075 2.843754,-14.69678 -2.822027,-3.02909 -7.370961,-0.25193 -11.047387,6.74429 -1.151649,2.1916 -2.336545,3.98477 -2.632915,3.98477 -0.825179,0 -0.69633,-0.38852 1.539958,-4.64416 2.027708,-3.85875 6.367135,-8.46408 7.975224,-8.46408 0.839609,0 1.018867,-0.89769 0.797367,-3.98994 -0.31264,-4.36464 -2.923004,-6.7073 -6.68693,-6.00118 -2.282098,0.42813 -5.152043,3.65279 -8.25531,9.27592 -1.253379,2.27112 -2.52971,4.28452 -2.83652,4.47414 -1.206158,0.74545 -1.064983,-0.34125 0.331763,-2.55385 0.806289,-1.27725 1.46606,-2.45071 1.46606,-2.60759 0,-0.88119 4.208082,-6.65029 5.9955,-8.21965 1.863548,-1.63622 2.057998,-2.05726 1.737879,-3.7636 -0.80422,-4.28687 -4.290819,-5.91181 -7.719426,-3.59771 -2.472147,1.66853 -5.666505,5.84283 -8.30802,10.8567 -1.114748,2.11588 -2.296803,3.84679 -2.626713,3.84679 -0.794428,0 -0.32717,-1.15015 2.541964,-6.25646 3.045544,-5.42026 7.481198,-10.12073 10.031946,-10.63088 1.458358,-0.29167 2.479603,-1.17596 4.453991,-3.85661 5.548265,-7.53294 6.447995,-11.61321 2.970878,-13.47411 -0.430739,-0.23052 -0.926395,-0.3333 -1.473295,-0.31316 z" />
      <path
         id="path5"
         style="fill:#f999b7;fill-opacity:1;stroke:#f95b99;stroke-width:6.13;stroke-linecap:square;stroke-opacity:1;paint-order:markers stroke fill"
         d="m 50.955351,134.03349 c -2.81363,0.0408 -5.482214,1.97939 -6.6151,5.41207 -1.132508,3.43154 -0.08139,5.6536 4.989876,10.55026 4.719511,4.55702 7.414609,6.78718 8.203117,6.78718 0.26697,0 2.219679,-1.44772 4.339787,-3.21685 8.095302,-6.75516 10.095465,-10.01592 8.798946,-14.34331 -1.037769,-3.46378 -3.040389,-4.95267 -6.662125,-4.95267 -2.599268,0 -3.310285,0.24783 -4.798674,1.6738 l -1.74718,1.67431 -1.588017,-1.52135 c -1.491806,-1.42923 -3.23245,-2.08792 -4.92063,-2.06344 z" />
    </g>
  </g>
</svg>
