<?xml version="1.0" encoding="UTF-8" standalone="no"?>
<!-- Created with Inkscape (http://www.inkscape.org/) -->

<svg
   width="210mm"
   height="297mm"
   viewBox="0 0 210 297"
   version="1.1"
   id="svg1"
   xmlns="http://www.w3.org/2000/svg"
   xmlns:svg="http://www.w3.org/2000/svg">
  <defs
     id="defs1">
    <linearGradient
       id="swatch3">
      <stop
         style="stop-color:#fa5b97;stop-opacity:1;"
         offset="0"
         id="stop3" />
    </linearGradient>
    <linearGradient
       id="swatch2">
      <stop
         style="stop-color:#000000;stop-opacity:1;"
         offset="0"
         id="stop2" />
    </linearGradient>
  </defs>
  <g
     id="layer1">
    <path
       id="path68"
       style="fill:#000000;fill-opacity:1;stroke:none;stroke-width:8.23437;stroke-dasharray:none;stroke-opacity:1"
       d="M 67.049975,27.789056 C 62.463012,27.635584 57.408883,27.850444 51.792739,28.422382 20.124704,31.626155 -1.3226891,63.681584 4.8225427,98.633228 8.3061251,118.44704 25.088061,139.43859 64.508381,173.28636 v 0.007 c 19.508913,16.75113 36.934699,30.46219 38.719479,30.49176 12.76516,0.14733 91.95594,-72.45481 99.24493,-90.98662 14.61858,-37.168183 -7.14708,-78.69036 -43.6273,-83.224425 -21.82255,-2.711845 -33.33283,-0.09208 -44.55826,10.128313 -8.71965,7.93551 -8.73376,7.937454 -16.432621,0.06139 -7.53321,-7.70694 -17.043339,-11.513345 -30.804634,-11.97509 z m -6.136515,7.792576 c 11.57637,-0.03069 23.459069,4.616633 33.575207,14.532235 L 105.25808,60.66965 117.37089,49.327887 c 10.31606,-9.66002 15.20464,-11.301553 33.02567,-11.097743 24.8308,0.283412 38.44681,10.646946 45.29093,34.47578 8.55073,29.770546 -5.41826,51.968586 -61.44883,97.649846 -14.67405,11.96332 -28.1727,21.72903 -30.00321,21.7143 -5.406194,-0.0614 -23.716083,-15.55579 -55.717009,-47.1686 C 14.133077,110.93276 7.1012086,95.610244 15.134019,72.17174 23.169777,48.725358 41.619653,35.641384 60.91346,35.581632 Z" />
  </g>
</svg>
