<?xml version="1.0" encoding="UTF-8" standalone="no"?>
<!-- Created with Inkscape (http://www.inkscape.org/) -->

<svg
   width="45.719139mm"
   height="71.751213mm"
   viewBox="0 0 45.719139 71.751213"
   version="1.1"
   id="svg1"
   xml:space="preserve"
   xmlns="http://www.w3.org/2000/svg"
   xmlns:svg="http://www.w3.org/2000/svg"><defs
     id="defs1"><linearGradient
       id="swatch30"><stop
         style="stop-color:#00000f;stop-opacity:1;"
         offset="0"
         id="stop30" /></linearGradient></defs><g
     id="layer1"
     transform="translate(-368.50773,-182.565)"><g
       id="g2"><g
         id="g11"><g
           id="g167"
           style="fill:#ffffff"
           transform="translate(274.68391,29.575106)"><g
             id="g168"><path
               style="fill:#ffffff;stroke-width:1.11488"
               d="m 37.938681,163.93416 c -3.12425,-0.94179 -4.36835,-5.0392 -2.58905,-8.52691 0.37441,-0.7339 0.42214,-1.10007 0.24576,-1.8851 -0.43695,-1.94471 -0.57119,-3.83063 1.32563,-4.70607 2.02563,-0.93489 5.62469,0.0262 6.22522,1.60018 0.0849,0.22257 0.24053,0.15386 0.52507,-0.23183 0.61021,-0.82713 2.14724,-1.51038 3.39775,-1.51038 2.97749,0 4.85548,2.24727 3.9597,4.73832 -0.32653,0.90805 -0.31742,1.07835 0.11034,2.06117 0.60059,1.37994 0.8083,3.98803 0.41301,5.18578 -0.68117,2.06397 -3.13071,3.75331 -4.94796,3.41239 -1.07497,-0.20167 -2.20112,-1.1409 -2.81818,-2.35043 -0.58015,-1.13719 -0.61678,-1.1425 -1.04255,-0.15119 -0.86283,2.00896 -2.80793,2.96599 -4.80474,2.36407 z m 2.32208,-1.06484 c 1.29656,-0.54172 3.07624,-0.67472 2.86958,-4.90856 -0.0182,-0.37242 0.13632,-0.86578 0.072,-0.49634 -0.18576,1.06704 0.44147,-1.46003 -2.19869,-1.44949 -0.86303,0.003 5.92986,0.0373 5.04598,0.0432 -1.1147,0.007 -1.42407,0.4958 -1.81798,1.6085 -0.0684,0.19333 0.0478,-0.44724 -0.29131,1.35832 -0.60619,3.22709 1.76778,4.46678 3.80094,4.08536 2.78954,-0.52333 4.28051,-2.3202 2.77844,-5.66728 -0.59963,-1.33614 -2.26948,-2.4702 -0.5632,-3.8855 1.7987,-1.49198 -0.28724,-4.38825 -2.89671,-4.38825 -1.84299,0 -3.59693,1.6939 -2.77218,3.11867 0.28713,0.49602 0.37755,0.29875 0.84465,1.36626 0.18515,0.42317 -0.0456,0.28888 -0.29622,-0.0254 -0.91035,-1.1413 -2.14084,-0.15663 -2.59865,0.33155 -0.007,0.007 0.0264,-0.24797 0.0254,-0.23925 -0.006,0.0491 -0.0817,-0.29296 0.0385,-0.83092 0.0779,-0.34884 0.61375,-1.31009 0.54554,-1.6394 -0.22305,-1.07682 -1.26602,-2.11353 -2.83053,-2.23941 -2.7203,-0.21888 -4.80274,0.40706 -3.31608,3.53536 0.3293,0.69293 1.64738,1.9294 0.15231,3.18725 -2.66814,2.24481 -1.55333,5.60703 0.75211,7.01289 0.89123,0.54346 1.57343,0.57492 2.65631,0.12245 z m 15.87656,1.1406 c -3.24591,-1.06646 -4.2716,-3.77336 -4.2725,-7.54937 -0.63273,-6.45256 5.03814,-9.7276 9.9866,-8.04149 5.97954,2.03745 6.61595,13.06427 0.78681,15.64278 -1.36337,0.60309 -5.21736,0.36979 -6.50091,-0.0519 z m 7.79393,-2.71066 c 0.49944,-0.43247 0.97118,-1.08963 1.13116,-3.94692 0.26405,-4.71574 -2.0843,-8.78172 -5.85334,-8.57242 -4.03009,0.2238 -6.44252,3.28842 -6.07029,7.39346 0.35263,3.88884 -0.0396,4.53351 3.92067,6.53352 1.05744,0.53402 4.61643,0.4282 5.67508,-0.43352 z m -3.88133,-1.46527 c 0.1322,-0.97155 -2.4535,-1.1072 -2.6097,-1.38722 -0.51056,-0.91533 -0.55619,-3.76105 -0.48617,-4.2706 0.18517,-1.34769 2.36248,-1.91808 2.74611,-1.92701 1.57623,-0.0367 2.2144,2.49024 2.2144,4.25356 0,1.56407 -1.27241,4.17739 -2.04391,4.64882 z m 11.43909,4.10133 c -2.94912,-0.62607 -4.6893,-2.54084 -4.67188,-5.14063 0.012,-1.78238 0.81404,-2.96175 2.33918,-3.43944 0.52886,-0.16563 0.52783,-0.17155 -0.21206,-1.22125 -1.98358,-2.81411 -0.20895,-5.18964 4.04362,-5.41284 3.78767,-0.1988 6.17183,1.0624 6.17183,3.26486 0,0.90029 0.0528,1.24276 -0.54537,1.7791 l -0.61038,0.54729 0.76104,0.9424 c 3.23412,4.00483 0.99466,8.40196 -4.81215,8.79638 -0.7992,0.0543 -1.90792,0.002 -2.46383,-0.11587 z m 5.30988,-1.53812 c 1.81159,-0.88634 2.48189,-1.85582 2.48189,-3.58968 0,-1.7563 -1.47905,-6.0614 -3.0728,-4.07267 -1.97518,2.46471 -3.16547,-0.69262 -3.16547,-1.26308 0,-0.54577 2.57656,-1.55648 2.77875,-1.02958 0.21495,0.56013 0.37569,1.36718 0.98929,1.18037 1.34025,-0.40804 1.8729,-2.00598 0.94775,-2.84321 -1.35896,-1.22985 -5.28078,-1.57935 -7.21504,-0.64299 -2.60669,1.26188 -1.69141,3.94318 1.73529,5.08352 1.80833,0.60176 3.04139,1.55806 3.50259,2.71642 0.41107,1.03246 0.40326,0.15781 0.81921,-0.1874 0.41185,-0.34182 0.86409,0.71867 0.86409,1.23563 0,0.86273 -2.17404,1.59338 -3.16426,1.06343 -0.71898,-0.38479 -1.16571,-1.99614 -0.41545,-1.80784 0.7638,0.1917 0.6549,0.19054 -0.027,-0.92776 -1.49212,-2.44716 -5.5259,-1.81892 -6.14182,0.73206 -0.17858,0.73969 0.24552,2.51753 0.74433,3.1202 1.67458,2.02324 5.55129,2.59628 8.33861,1.23258 z"
               id="path164" /><path
               id="path167"
               style="fill:#ffffff;fill-opacity:1;stroke:none;stroke-width:1.06699"
               d="m 51.968243,161.22298 c -0.474378,0 -1.148519,0.70017 -1.148519,1.19282 0,0.2186 0.178854,0.57631 0.397461,0.79492 0.746312,0.74631 1.987739,0.2499 1.987739,-0.79492 0,-0.61155 -0.602466,-1.19282 -1.236681,-1.19282 z m 14.658682,0 c -1.028579,0 -1.529443,1.04467 -0.890492,1.85699 0.473721,0.60224 0.900319,0.66326 1.534685,0.21893 0.824484,-0.5775 0.359529,-2.07592 -0.644193,-2.07592 z m -14.754687,0.62985 c 0.05809,-0.007 0.121378,-0.007 0.188954,0.003 0.327719,0.0465 0.447852,0.19634 0.447852,0.55775 0,0.57988 -0.512918,0.76056 -0.885269,0.31189 -0.315686,-0.38039 -0.158045,-0.81936 0.248463,-0.87182 z m 14.722979,0.005 c 0.300737,0.0429 0.422216,0.20202 0.422216,0.55427 0,0.56698 -0.510257,0.76427 -0.866587,0.33492 -0.337708,-0.4069 -0.06072,-0.96126 0.444371,-0.88919 z" /></g></g><g
           id="g162"
           transform="matrix(1.0851587,0,0,1.0851587,289.63579,-43.289085)"><g
             id="g163"
             transform="matrix(1.0313678,0,0,1.0313678,-2.5949421,-4.8674802)"><g
               id="g164"><path
                 id="path95"
                 style="fill:#ffffff"
                 d="m 27.429861,161.78088 c -1.131259,0 -1.528488,0.16878 -2.106848,0.89452 -0.663909,0.83306 -0.699798,1.12851 -0.520898,4.30929 0.16884,3.00177 0.976931,6.72852 1.592151,7.34374 0.115999,0.116 0.0096,0.5234 -0.236162,0.90537 -0.245709,0.38197 -0.758149,1.71928 -1.138948,2.9714 -1.725289,5.67292 -2.079655,6.63882 -3.439584,9.37565 -2.004628,4.03429 -1.904294,6.41013 0.337964,8.00158 0.36086,0.25612 1.533827,1.40763 2.607076,2.55902 1.073249,1.1514 2.683191,2.51401 3.57756,3.02772 h 5.16e-4 c 1.436379,0.82501 3.414779,1.26363 3.414779,0.75706 0,-0.10065 -0.914475,-0.5983 -2.032434,-1.10588 -1.481669,-0.67269 -2.837617,-1.7105 -5.001245,-3.8287 -1.632539,-1.59825 -3.1322,-3.21297 -3.33313,-3.58841 -0.677889,-1.26666 -0.372712,-2.63906 1.407666,-6.32417 0.975319,-2.01875 1.922955,-4.34614 2.105815,-5.17229 0.182849,-0.82615 0.506032,-1.92423 0.718302,-2.43964 0.21227,-0.51542 0.366515,-1.03426 0.342615,-1.15342 -0.09718,-0.48477 2.574201,-5.24301 3.932059,-7.00371 0.80003,-1.03737 2.314471,-2.67319 3.36517,-3.63544 1.050699,-0.96223 2.323715,-2.13315 2.829284,-2.6019 l 0.919324,-0.85215 -0.209806,0.84233 c -0.16712,0.67147 -0.04224,0.95156 0.614433,1.38183 0.453109,0.29688 1.121647,0.54001 1.485697,0.54001 0.36404,0 0.661975,0.0785 0.661975,0.17415 0,0.32016 -1.097967,1.91233 -3.691764,5.35472 -2.546888,3.38013 -2.59139,3.41912 -4.400248,3.82302 -1.158649,0.25871 -2.081287,0.6951 -2.520777,1.19269 -0.717219,0.81206 -1.452804,3.65808 -2.066024,7.99331 -0.189769,1.34156 -0.432188,2.84175 -0.538468,3.33365 -0.10627,0.49191 -0.05255,0.89452 0.118856,0.89452 0.427779,0 0.968718,-2.016 1.222147,-4.55321 0.11613,-1.16268 0.405359,-2.84597 0.642339,-3.74034 0.236979,-0.89437 0.522103,-2.02593 0.633553,-2.51458 0.290979,-1.27576 1.73239,-1.89784 4.572847,-1.97404 1.317129,-0.0353 2.494832,0.0358 2.617411,0.15813 0.12258,0.12233 -0.07164,0.53872 -0.432015,0.92553 -0.840169,0.90181 -1.746675,3.47034 -2.794144,7.91579 -0.55332,2.34836 -0.733641,3.71296 -0.536402,4.06539 0.25461,0.45495 0.340478,0.41461 0.600997,-0.28267 0.16707,-0.44719 0.40414,-1.54476 0.5271,-2.43913 0.381389,-2.77407 2.067418,-7.79312 2.931087,-8.72505 1.179219,-1.27239 2.727661,-1.18979 4.229199,0.22634 l 1.161687,1.09606 -0.459921,1.3038 c -0.253029,0.71716 -0.559395,2.16305 -0.681095,3.21324 -0.1217,1.0502 -0.427399,2.73588 -0.679028,3.7455 -0.53697,2.15456 -0.562027,2.55489 -0.158647,2.55489 0.448679,0 1.245889,-2.81092 1.475879,-5.20382 0.28455,-2.96048 1.045615,-5.44884 1.788004,-5.84615 0.906029,-0.4849 2.109878,-0.40924 3.419947,0.21549 1.263298,0.60243 1.793789,1.82602 1.796789,4.14806 0.0017,1.19671 -0.03013,1.24003 -0.47594,0.65061 -0.431999,-0.57118 -0.478174,-0.36796 -0.483174,2.1332 -0.0059,2.75531 0.201202,4.23148 0.592212,4.22248 0.113289,-0.003 0.425694,-0.14891 0.694014,-0.32504 0.42777,-0.28109 0.428705,-0.35793 0.0088,-0.62787 -0.26319,-0.16915 -0.384798,-0.4012 -0.270268,-0.51573 0.11452,-0.11452 0.680722,0.24331 1.258321,0.7953 0.57761,0.55199 1.101887,1.00356 1.164787,1.00356 0.43381,0 -0.09534,-0.84114 -1.324984,-2.10633 -1.359058,-1.39838 -1.420463,-1.5399 -1.096573,-2.53318 0.188659,-0.57859 0.413394,-1.60598 0.499194,-2.28307 l 0.156063,-1.23093 1.26969,1.70222 c 1.672068,2.24107 3.309297,5.63476 3.074747,6.37377 -0.138569,0.4366 0.06751,0.68172 0.809253,0.9617 0.5474,0.20657 0.941733,0.27526 0.876433,0.15245 -0.06528,-0.12282 -0.3822,-0.80896 -0.70435,-1.52446 -1.619909,-3.59782 -2.269233,-4.74017 -3.923792,-6.90294 -0.988839,-1.29256 -1.797823,-2.56511 -1.797823,-2.82773 0,-0.26261 -0.329278,-0.85477 -0.731738,-1.31568 -0.590539,-0.67631 -1.328085,-0.9511 -3.821472,-1.42369 -3.542017,-0.67134 -5.104972,-1.37486 -5.528862,-2.48977 -0.163459,-0.42993 -0.68006,-1.38844 -1.14825,-2.1301 l -0.851628,-1.34876 1.353923,-1.60558 c 1.588808,-1.88423 3.23773,-4.99063 3.24373,-6.11074 0.006,-1.14638 -0.896344,-1.97714 -2.147673,-1.97714 -0.790859,0 -1.57317,0.39842 -2.957959,1.50585 -1.035489,0.8281 -2.049886,1.71238 -2.254126,1.96525 -0.30588,0.37872 -0.495604,0.25828 -1.077453,-0.68316 -0.38849,-0.6286 -1.376476,-1.7324 -2.195215,-2.45308 -1.243959,-1.09498 -1.717503,-1.31051 -2.882512,-1.31051 z m -0.03772,0.62838 c 1.081444,0.0647 2.423574,1.00228 3.744992,2.71508 1.340328,1.73732 1.658731,2.51096 1.034562,2.51096 -0.17659,0 -1.188076,1.06116 -2.247925,2.358 -1.059849,1.29683 -2.197698,2.69631 -2.528528,3.1104 l -0.601514,0.75293 -0.597379,-2.31976 c -0.898009,-3.48598 -1.08392,-7.24918 -0.408761,-8.2796 0.400414,-0.6111 0.955688,-0.8868 1.604553,-0.84801 z m 11.42721,1.03818 c 0.287125,-0.04 0.565463,0.0958 0.967383,0.38964 0.553269,0.40456 0.556403,0.49195 0.05374,1.464 -0.547939,1.05958 -1.222248,1.26628 -2.225187,0.68212 -0.771749,-0.44949 -0.715408,-1.02418 0.183451,-1.86862 0.43734,-0.41085 0.733485,-0.62712 1.02061,-0.66714 z m -2.800863,9.73377 0.839226,1.43144 c 0.461399,0.78733 0.838708,1.58852 0.838708,1.78026 0,0.41731 -0.68245,0.38959 -2.458248,-0.10026 l -1.319299,-0.36432 1.049548,-1.37356 z m -8.142138,19.18798 c -0.07588,0.007 -0.166699,0.15286 -0.329179,0.44235 -0.27624,0.4922 -0.225063,0.71197 0.246496,1.05678 0.65439,0.47851 1.127902,0.53774 1.908411,0.23823 0.837629,-0.32143 0.586912,-0.77824 -0.426847,-0.77824 -0.59572,0 -1.021296,-0.20912 -1.160136,-0.56948 -0.102135,-0.26508 -0.162867,-0.39664 -0.238745,-0.38964 z m 9.476424,0.49041 c -0.219385,-0.002 -0.525949,0.008 -0.933277,0.0217 -1.692558,0.0564 -2.159621,0.40189 -1.104842,0.81753 0.937479,0.36942 1.285591,0.31901 2.04587,-0.29663 0.526222,-0.42609 0.650403,-0.53682 -0.0078,-0.5426 z m 4.501017,0.29972 c -0.740609,0.0349 -0.791961,0.33669 -0.01085,0.79737 0.31303,0.18458 1.008496,0.24775 1.545125,0.14056 1.767529,-0.35305 1.611024,-0.59412 -0.569474,-0.87953 -0.39485,-0.0517 -0.717929,-0.07 -0.964799,-0.0584 z" /><path
                 id="path161"
                 style="fill:#ff0000"
                 d="m 30.797752,152.6326 c -0.310574,-0.0104 -0.652761,0.004 -1.033012,0.0429 -2.144116,0.21692 -3.596236,2.38727 -3.180168,4.75371 0.23586,1.34151 1.372103,2.76277 4.041097,5.05447 v 5.2e-4 c 1.320868,1.13416 2.500706,2.06248 2.621546,2.06448 0.864278,0.01 6.225978,-4.90563 6.719486,-6.16035 0.989768,-2.51651 -0.483899,-5.32782 -2.953825,-5.6348 -1.477526,-0.18361 -2.256842,-0.006 -3.01687,0.68575 -0.590378,0.53728 -0.591334,0.53741 -1.112594,0.004 -0.510043,-0.52182 -1.153941,-0.77954 -2.08566,-0.8108 z m -0.415479,0.52761 c 0.783786,-0.002 1.588314,0.31257 2.273246,0.98392 l 0.729155,0.71469 0.820105,-0.76791 c 0.698458,-0.65404 1.029451,-0.76518 2.236039,-0.75138 1.681206,0.0192 2.60309,0.72086 3.06648,2.33422 0.578938,2.01565 -0.366848,3.51859 -4.16047,6.61149 -0.993518,0.80999 -1.907461,1.47119 -2.031401,1.47019 -0.366028,-0.004 -1.605713,-1.05322 -3.772379,-3.1936 -2.328096,-2.29989 -2.804197,-3.33732 -2.260327,-4.92425 0.544073,-1.58746 1.793242,-2.47333 3.099552,-2.47737 z" /></g></g></g></g><g
         id="g29"
         transform="translate(59.29142,60.313685)"
         style="fill:#ff8080"><g
           id="g13"
           style="fill:#ff8080"
           transform="translate(274.68391,29.575106)"><g
             id="g12"
             style="fill:#ff8080"><path
               style="fill:#ff8080;stroke-width:1.11488"
               d="m 37.938681,163.93416 c -3.12425,-0.94179 -4.36835,-5.0392 -2.58905,-8.52691 0.37441,-0.7339 0.42214,-1.10007 0.24576,-1.8851 -0.43695,-1.94471 -0.57119,-3.83063 1.32563,-4.70607 2.02563,-0.93489 5.62469,0.0262 6.22522,1.60018 0.0849,0.22257 0.24053,0.15386 0.52507,-0.23183 0.61021,-0.82713 2.14724,-1.51038 3.39775,-1.51038 2.97749,0 4.85548,2.24727 3.9597,4.73832 -0.32653,0.90805 -0.31742,1.07835 0.11034,2.06117 0.60059,1.37994 0.8083,3.98803 0.41301,5.18578 -0.68117,2.06397 -3.13071,3.75331 -4.94796,3.41239 -1.07497,-0.20167 -2.20112,-1.1409 -2.81818,-2.35043 -0.58015,-1.13719 -0.61678,-1.1425 -1.04255,-0.15119 -0.86283,2.00896 -2.80793,2.96599 -4.80474,2.36407 z m 2.32208,-1.06484 c 1.29656,-0.54172 3.07624,-0.67472 2.86958,-4.90856 -0.0182,-0.37242 0.13632,-0.86578 0.072,-0.49634 -0.18576,1.06704 0.44147,-1.46003 -2.19869,-1.44949 -0.86303,0.003 5.92986,0.0373 5.04598,0.0432 -1.1147,0.007 -1.42407,0.4958 -1.81798,1.6085 -0.0684,0.19333 0.0478,-0.44724 -0.29131,1.35832 -0.60619,3.22709 1.76778,4.46678 3.80094,4.08536 2.78954,-0.52333 4.28051,-2.3202 2.77844,-5.66728 -0.59963,-1.33614 -2.26948,-2.4702 -0.5632,-3.8855 1.7987,-1.49198 -0.28724,-4.38825 -2.89671,-4.38825 -1.84299,0 -3.59693,1.6939 -2.77218,3.11867 0.28713,0.49602 0.37755,0.29875 0.84465,1.36626 0.18515,0.42317 -0.0456,0.28888 -0.29622,-0.0254 -0.91035,-1.1413 -2.14084,-0.15663 -2.59865,0.33155 -0.007,0.007 0.0264,-0.24797 0.0254,-0.23925 -0.006,0.0491 -0.0817,-0.29296 0.0385,-0.83092 0.0779,-0.34884 0.61375,-1.31009 0.54554,-1.6394 -0.22305,-1.07682 -1.26602,-2.11353 -2.83053,-2.23941 -2.7203,-0.21888 -4.80274,0.40706 -3.31608,3.53536 0.3293,0.69293 1.64738,1.9294 0.15231,3.18725 -2.66814,2.24481 -1.55333,5.60703 0.75211,7.01289 0.89123,0.54346 1.57343,0.57492 2.65631,0.12245 z m 15.87656,1.1406 c -3.24591,-1.06646 -4.2716,-3.77336 -4.2725,-7.54937 -0.63273,-6.45256 5.03814,-9.7276 9.9866,-8.04149 5.97954,2.03745 6.61595,13.06427 0.78681,15.64278 -1.36337,0.60309 -5.21736,0.36979 -6.50091,-0.0519 z m 7.79393,-2.71066 c 0.49944,-0.43247 0.97118,-1.08963 1.13116,-3.94692 0.26405,-4.71574 -2.0843,-8.78172 -5.85334,-8.57242 -4.03009,0.2238 -6.44252,3.28842 -6.07029,7.39346 0.35263,3.88884 -0.0396,4.53351 3.92067,6.53352 1.05744,0.53402 4.61643,0.4282 5.67508,-0.43352 z m -3.88133,-1.46527 c 0.1322,-0.97155 -2.4535,-1.1072 -2.6097,-1.38722 -0.51056,-0.91533 -0.55619,-3.76105 -0.48617,-4.2706 0.18517,-1.34769 2.36248,-1.91808 2.74611,-1.92701 1.57623,-0.0367 2.2144,2.49024 2.2144,4.25356 0,1.56407 -1.27241,4.17739 -2.04391,4.64882 z m 11.43909,4.10133 c -2.94912,-0.62607 -4.6893,-2.54084 -4.67188,-5.14063 0.012,-1.78238 0.81404,-2.96175 2.33918,-3.43944 0.52886,-0.16563 0.52783,-0.17155 -0.21206,-1.22125 -1.98358,-2.81411 -0.20895,-5.18964 4.04362,-5.41284 3.78767,-0.1988 6.17183,1.0624 6.17183,3.26486 0,0.90029 0.0528,1.24276 -0.54537,1.7791 l -0.61038,0.54729 0.76104,0.9424 c 3.23412,4.00483 0.99466,8.40196 -4.81215,8.79638 -0.7992,0.0543 -1.90792,0.002 -2.46383,-0.11587 z m 5.30988,-1.53812 c 1.81159,-0.88634 2.48189,-1.85582 2.48189,-3.58968 0,-1.7563 -1.47905,-6.0614 -3.0728,-4.07267 -1.97518,2.46471 -3.16547,-0.69262 -3.16547,-1.26308 0,-0.54577 2.57656,-1.55648 2.77875,-1.02958 0.21495,0.56013 0.37569,1.36718 0.98929,1.18037 1.34025,-0.40804 1.8729,-2.00598 0.94775,-2.84321 -1.35896,-1.22985 -5.28078,-1.57935 -7.21504,-0.64299 -2.60669,1.26188 -1.69141,3.94318 1.73529,5.08352 1.80833,0.60176 3.04139,1.55806 3.50259,2.71642 0.41107,1.03246 0.40326,0.15781 0.81921,-0.1874 0.41185,-0.34182 0.86409,0.71867 0.86409,1.23563 0,0.86273 -2.17404,1.59338 -3.16426,1.06343 -0.71898,-0.38479 -1.16571,-1.99614 -0.41545,-1.80784 0.7638,0.1917 0.6549,0.19054 -0.027,-0.92776 -1.49212,-2.44716 -5.5259,-1.81892 -6.14182,0.73206 -0.17858,0.73969 0.24552,2.51753 0.74433,3.1202 1.67458,2.02324 5.55129,2.59628 8.33861,1.23258 z"
               id="path11" /><path
               id="path12"
               style="fill:#ff8080;fill-opacity:1;stroke:none;stroke-width:1.06699"
               d="m 51.968243,161.22298 c -0.474378,0 -1.148519,0.70017 -1.148519,1.19282 0,0.2186 0.178854,0.57631 0.397461,0.79492 0.746312,0.74631 1.987739,0.2499 1.987739,-0.79492 0,-0.61155 -0.602466,-1.19282 -1.236681,-1.19282 z m 14.658682,0 c -1.028579,0 -1.529443,1.04467 -0.890492,1.85699 0.473721,0.60224 0.900319,0.66326 1.534685,0.21893 0.824484,-0.5775 0.359529,-2.07592 -0.644193,-2.07592 z m -14.754687,0.62985 c 0.05809,-0.007 0.121378,-0.007 0.188954,0.003 0.327719,0.0465 0.447852,0.19634 0.447852,0.55775 0,0.57988 -0.512918,0.76056 -0.885269,0.31189 -0.315686,-0.38039 -0.158045,-0.81936 0.248463,-0.87182 z m 14.722979,0.005 c 0.300737,0.0429 0.422216,0.20202 0.422216,0.55427 0,0.56698 -0.510257,0.76427 -0.866587,0.33492 -0.337708,-0.4069 -0.06072,-0.96126 0.444371,-0.88919 z" /></g></g><g
           id="g28"
           transform="matrix(1.0851587,0,0,1.0851587,289.63579,-43.289085)"
           style="fill:#ff8080"><g
             id="g27"
             transform="matrix(1.0313678,0,0,1.0313678,-2.5949421,-4.8674802)"
             style="fill:#ff8080"><g
               id="g26"
               style="fill:#ff8080"><path
                 id="path13"
                 style="fill:#ff8080"
                 d="m 27.429861,161.78088 c -1.131259,0 -1.528488,0.16878 -2.106848,0.89452 -0.663909,0.83306 -0.699798,1.12851 -0.520898,4.30929 0.16884,3.00177 0.976931,6.72852 1.592151,7.34374 0.115999,0.116 0.0096,0.5234 -0.236162,0.90537 -0.245709,0.38197 -0.758149,1.71928 -1.138948,2.9714 -1.725289,5.67292 -2.079655,6.63882 -3.439584,9.37565 -2.004628,4.03429 -1.904294,6.41013 0.337964,8.00158 0.36086,0.25612 1.533827,1.40763 2.607076,2.55902 1.073249,1.1514 2.683191,2.51401 3.57756,3.02772 h 5.16e-4 c 1.436379,0.82501 3.414779,1.26363 3.414779,0.75706 0,-0.10065 -0.914475,-0.5983 -2.032434,-1.10588 -1.481669,-0.67269 -2.837617,-1.7105 -5.001245,-3.8287 -1.632539,-1.59825 -3.1322,-3.21297 -3.33313,-3.58841 -0.677889,-1.26666 -0.372712,-2.63906 1.407666,-6.32417 0.975319,-2.01875 1.922955,-4.34614 2.105815,-5.17229 0.182849,-0.82615 0.506032,-1.92423 0.718302,-2.43964 0.21227,-0.51542 0.366515,-1.03426 0.342615,-1.15342 -0.09718,-0.48477 2.574201,-5.24301 3.932059,-7.00371 0.80003,-1.03737 2.314471,-2.67319 3.36517,-3.63544 1.050699,-0.96223 2.323715,-2.13315 2.829284,-2.6019 l 0.919324,-0.85215 -0.209806,0.84233 c -0.16712,0.67147 -0.04224,0.95156 0.614433,1.38183 0.453109,0.29688 1.121647,0.54001 1.485697,0.54001 0.36404,0 0.661975,0.0785 0.661975,0.17415 0,0.32016 -1.097967,1.91233 -3.691764,5.35472 -2.546888,3.38013 -2.59139,3.41912 -4.400248,3.82302 -1.158649,0.25871 -2.081287,0.6951 -2.520777,1.19269 -0.717219,0.81206 -1.452804,3.65808 -2.066024,7.99331 -0.189769,1.34156 -0.432188,2.84175 -0.538468,3.33365 -0.10627,0.49191 -0.05255,0.89452 0.118856,0.89452 0.427779,0 0.968718,-2.016 1.222147,-4.55321 0.11613,-1.16268 0.405359,-2.84597 0.642339,-3.74034 0.236979,-0.89437 0.522103,-2.02593 0.633553,-2.51458 0.290979,-1.27576 1.73239,-1.89784 4.572847,-1.97404 1.317129,-0.0353 2.494832,0.0358 2.617411,0.15813 0.12258,0.12233 -0.07164,0.53872 -0.432015,0.92553 -0.840169,0.90181 -1.746675,3.47034 -2.794144,7.91579 -0.55332,2.34836 -0.733641,3.71296 -0.536402,4.06539 0.25461,0.45495 0.340478,0.41461 0.600997,-0.28267 0.16707,-0.44719 0.40414,-1.54476 0.5271,-2.43913 0.381389,-2.77407 2.067418,-7.79312 2.931087,-8.72505 1.179219,-1.27239 2.727661,-1.18979 4.229199,0.22634 l 1.161687,1.09606 -0.459921,1.3038 c -0.253029,0.71716 -0.559395,2.16305 -0.681095,3.21324 -0.1217,1.0502 -0.427399,2.73588 -0.679028,3.7455 -0.53697,2.15456 -0.562027,2.55489 -0.158647,2.55489 0.448679,0 1.245889,-2.81092 1.475879,-5.20382 0.28455,-2.96048 1.045615,-5.44884 1.788004,-5.84615 0.906029,-0.4849 2.109878,-0.40924 3.419947,0.21549 1.263298,0.60243 1.793789,1.82602 1.796789,4.14806 0.0017,1.19671 -0.03013,1.24003 -0.47594,0.65061 -0.431999,-0.57118 -0.478174,-0.36796 -0.483174,2.1332 -0.0059,2.75531 0.201202,4.23148 0.592212,4.22248 0.113289,-0.003 0.425694,-0.14891 0.694014,-0.32504 0.42777,-0.28109 0.428705,-0.35793 0.0088,-0.62787 -0.26319,-0.16915 -0.384798,-0.4012 -0.270268,-0.51573 0.11452,-0.11452 0.680722,0.24331 1.258321,0.7953 0.57761,0.55199 1.101887,1.00356 1.164787,1.00356 0.43381,0 -0.09534,-0.84114 -1.324984,-2.10633 -1.359058,-1.39838 -1.420463,-1.5399 -1.096573,-2.53318 0.188659,-0.57859 0.413394,-1.60598 0.499194,-2.28307 l 0.156063,-1.23093 1.26969,1.70222 c 1.672068,2.24107 3.309297,5.63476 3.074747,6.37377 -0.138569,0.4366 0.06751,0.68172 0.809253,0.9617 0.5474,0.20657 0.941733,0.27526 0.876433,0.15245 -0.06528,-0.12282 -0.3822,-0.80896 -0.70435,-1.52446 -1.619909,-3.59782 -2.269233,-4.74017 -3.923792,-6.90294 -0.988839,-1.29256 -1.797823,-2.56511 -1.797823,-2.82773 0,-0.26261 -0.329278,-0.85477 -0.731738,-1.31568 -0.590539,-0.67631 -1.328085,-0.9511 -3.821472,-1.42369 -3.542017,-0.67134 -5.104972,-1.37486 -5.528862,-2.48977 -0.163459,-0.42993 -0.68006,-1.38844 -1.14825,-2.1301 l -0.851628,-1.34876 1.353923,-1.60558 c 1.588808,-1.88423 3.23773,-4.99063 3.24373,-6.11074 0.006,-1.14638 -0.896344,-1.97714 -2.147673,-1.97714 -0.790859,0 -1.57317,0.39842 -2.957959,1.50585 -1.035489,0.8281 -2.049886,1.71238 -2.254126,1.96525 -0.30588,0.37872 -0.495604,0.25828 -1.077453,-0.68316 -0.38849,-0.6286 -1.376476,-1.7324 -2.195215,-2.45308 -1.243959,-1.09498 -1.717503,-1.31051 -2.882512,-1.31051 z m -0.03772,0.62838 c 1.081444,0.0647 2.423574,1.00228 3.744992,2.71508 1.340328,1.73732 1.658731,2.51096 1.034562,2.51096 -0.17659,0 -1.188076,1.06116 -2.247925,2.358 -1.059849,1.29683 -2.197698,2.69631 -2.528528,3.1104 l -0.601514,0.75293 -0.597379,-2.31976 c -0.898009,-3.48598 -1.08392,-7.24918 -0.408761,-8.2796 0.400414,-0.6111 0.955688,-0.8868 1.604553,-0.84801 z m 11.42721,1.03818 c 0.287125,-0.04 0.565463,0.0958 0.967383,0.38964 0.553269,0.40456 0.556403,0.49195 0.05374,1.464 -0.547939,1.05958 -1.222248,1.26628 -2.225187,0.68212 -0.771749,-0.44949 -0.715408,-1.02418 0.183451,-1.86862 0.43734,-0.41085 0.733485,-0.62712 1.02061,-0.66714 z m -2.800863,9.73377 0.839226,1.43144 c 0.461399,0.78733 0.838708,1.58852 0.838708,1.78026 0,0.41731 -0.68245,0.38959 -2.458248,-0.10026 l -1.319299,-0.36432 1.049548,-1.37356 z m -8.142138,19.18798 c -0.07588,0.007 -0.166699,0.15286 -0.329179,0.44235 -0.27624,0.4922 -0.225063,0.71197 0.246496,1.05678 0.65439,0.47851 1.127902,0.53774 1.908411,0.23823 0.837629,-0.32143 0.586912,-0.77824 -0.426847,-0.77824 -0.59572,0 -1.021296,-0.20912 -1.160136,-0.56948 -0.102135,-0.26508 -0.162867,-0.39664 -0.238745,-0.38964 z m 9.476424,0.49041 c -0.219385,-0.002 -0.525949,0.008 -0.933277,0.0217 -1.692558,0.0564 -2.159621,0.40189 -1.104842,0.81753 0.937479,0.36942 1.285591,0.31901 2.04587,-0.29663 0.526222,-0.42609 0.650403,-0.53682 -0.0078,-0.5426 z m 4.501017,0.29972 c -0.740609,0.0349 -0.791961,0.33669 -0.01085,0.79737 0.31303,0.18458 1.008496,0.24775 1.545125,0.14056 1.767529,-0.35305 1.611024,-0.59412 -0.569474,-0.87953 -0.39485,-0.0517 -0.717929,-0.07 -0.964799,-0.0584 z" /><path
                 id="path26"
                 style="fill:#ff8080"
                 d="m 30.797752,152.6326 c -0.310574,-0.0104 -0.652761,0.004 -1.033012,0.0429 -2.144116,0.21692 -3.596236,2.38727 -3.180168,4.75371 0.23586,1.34151 1.372103,2.76277 4.041097,5.05447 v 5.2e-4 c 1.320868,1.13416 2.500706,2.06248 2.621546,2.06448 0.864278,0.01 6.225978,-4.90563 6.719486,-6.16035 0.989768,-2.51651 -0.483899,-5.32782 -2.953825,-5.6348 -1.477526,-0.18361 -2.256842,-0.006 -3.01687,0.68575 -0.590378,0.53728 -0.591334,0.53741 -1.112594,0.004 -0.510043,-0.52182 -1.153941,-0.77954 -2.08566,-0.8108 z m -0.415479,0.52761 c 0.783786,-0.002 1.588314,0.31257 2.273246,0.98392 l 0.729155,0.71469 0.820105,-0.76791 c 0.698458,-0.65404 1.029451,-0.76518 2.236039,-0.75138 1.681206,0.0192 2.60309,0.72086 3.06648,2.33422 0.578938,2.01565 -0.366848,3.51859 -4.16047,6.61149 -0.993518,0.80999 -1.907461,1.47119 -2.031401,1.47019 -0.366028,-0.004 -1.605713,-1.05322 -3.772379,-3.1936 -2.328096,-2.29989 -2.804197,-3.33732 -2.260327,-4.92425 0.544073,-1.58746 1.793242,-2.47333 3.099552,-2.47737 z" /></g></g></g></g><g
         id="g39"
         transform="translate(53.566731,-16.560707)"
         style="fill:#ffaaaa"><g
           id="g35"
           style="fill:#ffaaaa"
           transform="translate(274.68391,29.575106)"><g
             id="g34"
             style="fill:#ffaaaa"><path
               style="fill:#ffaaaa;stroke-width:1.11488"
               d="m 37.938681,163.93416 c -3.12425,-0.94179 -4.36835,-5.0392 -2.58905,-8.52691 0.37441,-0.7339 0.42214,-1.10007 0.24576,-1.8851 -0.43695,-1.94471 -0.57119,-3.83063 1.32563,-4.70607 2.02563,-0.93489 5.62469,0.0262 6.22522,1.60018 0.0849,0.22257 0.24053,0.15386 0.52507,-0.23183 0.61021,-0.82713 2.14724,-1.51038 3.39775,-1.51038 2.97749,0 4.85548,2.24727 3.9597,4.73832 -0.32653,0.90805 -0.31742,1.07835 0.11034,2.06117 0.60059,1.37994 0.8083,3.98803 0.41301,5.18578 -0.68117,2.06397 -3.13071,3.75331 -4.94796,3.41239 -1.07497,-0.20167 -2.20112,-1.1409 -2.81818,-2.35043 -0.58015,-1.13719 -0.61678,-1.1425 -1.04255,-0.15119 -0.86283,2.00896 -2.80793,2.96599 -4.80474,2.36407 z m 2.32208,-1.06484 c 1.29656,-0.54172 3.07624,-0.67472 2.86958,-4.90856 -0.0182,-0.37242 0.13632,-0.86578 0.072,-0.49634 -0.18576,1.06704 0.44147,-1.46003 -2.19869,-1.44949 -0.86303,0.003 5.92986,0.0373 5.04598,0.0432 -1.1147,0.007 -1.42407,0.4958 -1.81798,1.6085 -0.0684,0.19333 0.0478,-0.44724 -0.29131,1.35832 -0.60619,3.22709 1.76778,4.46678 3.80094,4.08536 2.78954,-0.52333 4.28051,-2.3202 2.77844,-5.66728 -0.59963,-1.33614 -2.26948,-2.4702 -0.5632,-3.8855 1.7987,-1.49198 -0.28724,-4.38825 -2.89671,-4.38825 -1.84299,0 -3.59693,1.6939 -2.77218,3.11867 0.28713,0.49602 0.37755,0.29875 0.84465,1.36626 0.18515,0.42317 -0.0456,0.28888 -0.29622,-0.0254 -0.91035,-1.1413 -2.14084,-0.15663 -2.59865,0.33155 -0.007,0.007 0.0264,-0.24797 0.0254,-0.23925 -0.006,0.0491 -0.0817,-0.29296 0.0385,-0.83092 0.0779,-0.34884 0.61375,-1.31009 0.54554,-1.6394 -0.22305,-1.07682 -1.26602,-2.11353 -2.83053,-2.23941 -2.7203,-0.21888 -4.80274,0.40706 -3.31608,3.53536 0.3293,0.69293 1.64738,1.9294 0.15231,3.18725 -2.66814,2.24481 -1.55333,5.60703 0.75211,7.01289 0.89123,0.54346 1.57343,0.57492 2.65631,0.12245 z m 15.87656,1.1406 c -3.24591,-1.06646 -4.2716,-3.77336 -4.2725,-7.54937 -0.63273,-6.45256 5.03814,-9.7276 9.9866,-8.04149 5.97954,2.03745 6.61595,13.06427 0.78681,15.64278 -1.36337,0.60309 -5.21736,0.36979 -6.50091,-0.0519 z m 7.79393,-2.71066 c 0.49944,-0.43247 0.97118,-1.08963 1.13116,-3.94692 0.26405,-4.71574 -2.0843,-8.78172 -5.85334,-8.57242 -4.03009,0.2238 -6.44252,3.28842 -6.07029,7.39346 0.35263,3.88884 -0.0396,4.53351 3.92067,6.53352 1.05744,0.53402 4.61643,0.4282 5.67508,-0.43352 z m -3.88133,-1.46527 c 0.1322,-0.97155 -2.4535,-1.1072 -2.6097,-1.38722 -0.51056,-0.91533 -0.55619,-3.76105 -0.48617,-4.2706 0.18517,-1.34769 2.36248,-1.91808 2.74611,-1.92701 1.57623,-0.0367 2.2144,2.49024 2.2144,4.25356 0,1.56407 -1.27241,4.17739 -2.04391,4.64882 z m 11.43909,4.10133 c -2.94912,-0.62607 -4.6893,-2.54084 -4.67188,-5.14063 0.012,-1.78238 0.81404,-2.96175 2.33918,-3.43944 0.52886,-0.16563 0.52783,-0.17155 -0.21206,-1.22125 -1.98358,-2.81411 -0.20895,-5.18964 4.04362,-5.41284 3.78767,-0.1988 6.17183,1.0624 6.17183,3.26486 0,0.90029 0.0528,1.24276 -0.54537,1.7791 l -0.61038,0.54729 0.76104,0.9424 c 3.23412,4.00483 0.99466,8.40196 -4.81215,8.79638 -0.7992,0.0543 -1.90792,0.002 -2.46383,-0.11587 z m 5.30988,-1.53812 c 1.81159,-0.88634 2.48189,-1.85582 2.48189,-3.58968 0,-1.7563 -1.47905,-6.0614 -3.0728,-4.07267 -1.97518,2.46471 -3.16547,-0.69262 -3.16547,-1.26308 0,-0.54577 2.57656,-1.55648 2.77875,-1.02958 0.21495,0.56013 0.37569,1.36718 0.98929,1.18037 1.34025,-0.40804 1.8729,-2.00598 0.94775,-2.84321 -1.35896,-1.22985 -5.28078,-1.57935 -7.21504,-0.64299 -2.60669,1.26188 -1.69141,3.94318 1.73529,5.08352 1.80833,0.60176 3.04139,1.55806 3.50259,2.71642 0.41107,1.03246 0.40326,0.15781 0.81921,-0.1874 0.41185,-0.34182 0.86409,0.71867 0.86409,1.23563 0,0.86273 -2.17404,1.59338 -3.16426,1.06343 -0.71898,-0.38479 -1.16571,-1.99614 -0.41545,-1.80784 0.7638,0.1917 0.6549,0.19054 -0.027,-0.92776 -1.49212,-2.44716 -5.5259,-1.81892 -6.14182,0.73206 -0.17858,0.73969 0.24552,2.51753 0.74433,3.1202 1.67458,2.02324 5.55129,2.59628 8.33861,1.23258 z"
               id="path29" /><path
               id="path34"
               style="fill:#ffaaaa;fill-opacity:1;stroke:none;stroke-width:1.06699"
               d="m 51.968243,161.22298 c -0.474378,0 -1.148519,0.70017 -1.148519,1.19282 0,0.2186 0.178854,0.57631 0.397461,0.79492 0.746312,0.74631 1.987739,0.2499 1.987739,-0.79492 0,-0.61155 -0.602466,-1.19282 -1.236681,-1.19282 z m 14.658682,0 c -1.028579,0 -1.529443,1.04467 -0.890492,1.85699 0.473721,0.60224 0.900319,0.66326 1.534685,0.21893 0.824484,-0.5775 0.359529,-2.07592 -0.644193,-2.07592 z m -14.754687,0.62985 c 0.05809,-0.007 0.121378,-0.007 0.188954,0.003 0.327719,0.0465 0.447852,0.19634 0.447852,0.55775 0,0.57988 -0.512918,0.76056 -0.885269,0.31189 -0.315686,-0.38039 -0.158045,-0.81936 0.248463,-0.87182 z m 14.722979,0.005 c 0.300737,0.0429 0.422216,0.20202 0.422216,0.55427 0,0.56698 -0.510257,0.76427 -0.866587,0.33492 -0.337708,-0.4069 -0.06072,-0.96126 0.444371,-0.88919 z" /></g></g><g
           id="g38"
           transform="matrix(1.0851587,0,0,1.0851587,289.63579,-43.289085)"
           style="fill:#ffaaaa"><g
             id="g37"
             transform="matrix(1.0313678,0,0,1.0313678,-2.5949421,-4.8674802)"
             style="fill:#ffaaaa"><g
               id="g36"
               style="fill:#ffaaaa"><path
                 id="path35"
                 style="fill:#ffaaaa"
                 d="m 27.429861,161.78088 c -1.131259,0 -1.528488,0.16878 -2.106848,0.89452 -0.663909,0.83306 -0.699798,1.12851 -0.520898,4.30929 0.16884,3.00177 0.976931,6.72852 1.592151,7.34374 0.115999,0.116 0.0096,0.5234 -0.236162,0.90537 -0.245709,0.38197 -0.758149,1.71928 -1.138948,2.9714 -1.725289,5.67292 -2.079655,6.63882 -3.439584,9.37565 -2.004628,4.03429 -1.904294,6.41013 0.337964,8.00158 0.36086,0.25612 1.533827,1.40763 2.607076,2.55902 1.073249,1.1514 2.683191,2.51401 3.57756,3.02772 h 5.16e-4 c 1.436379,0.82501 3.414779,1.26363 3.414779,0.75706 0,-0.10065 -0.914475,-0.5983 -2.032434,-1.10588 -1.481669,-0.67269 -2.837617,-1.7105 -5.001245,-3.8287 -1.632539,-1.59825 -3.1322,-3.21297 -3.33313,-3.58841 -0.677889,-1.26666 -0.372712,-2.63906 1.407666,-6.32417 0.975319,-2.01875 1.922955,-4.34614 2.105815,-5.17229 0.182849,-0.82615 0.506032,-1.92423 0.718302,-2.43964 0.21227,-0.51542 0.366515,-1.03426 0.342615,-1.15342 -0.09718,-0.48477 2.574201,-5.24301 3.932059,-7.00371 0.80003,-1.03737 2.314471,-2.67319 3.36517,-3.63544 1.050699,-0.96223 2.323715,-2.13315 2.829284,-2.6019 l 0.919324,-0.85215 -0.209806,0.84233 c -0.16712,0.67147 -0.04224,0.95156 0.614433,1.38183 0.453109,0.29688 1.121647,0.54001 1.485697,0.54001 0.36404,0 0.661975,0.0785 0.661975,0.17415 0,0.32016 -1.097967,1.91233 -3.691764,5.35472 -2.546888,3.38013 -2.59139,3.41912 -4.400248,3.82302 -1.158649,0.25871 -2.081287,0.6951 -2.520777,1.19269 -0.717219,0.81206 -1.452804,3.65808 -2.066024,7.99331 -0.189769,1.34156 -0.432188,2.84175 -0.538468,3.33365 -0.10627,0.49191 -0.05255,0.89452 0.118856,0.89452 0.427779,0 0.968718,-2.016 1.222147,-4.55321 0.11613,-1.16268 0.405359,-2.84597 0.642339,-3.74034 0.236979,-0.89437 0.522103,-2.02593 0.633553,-2.51458 0.290979,-1.27576 1.73239,-1.89784 4.572847,-1.97404 1.317129,-0.0353 2.494832,0.0358 2.617411,0.15813 0.12258,0.12233 -0.07164,0.53872 -0.432015,0.92553 -0.840169,0.90181 -1.746675,3.47034 -2.794144,7.91579 -0.55332,2.34836 -0.733641,3.71296 -0.536402,4.06539 0.25461,0.45495 0.340478,0.41461 0.600997,-0.28267 0.16707,-0.44719 0.40414,-1.54476 0.5271,-2.43913 0.381389,-2.77407 2.067418,-7.79312 2.931087,-8.72505 1.179219,-1.27239 2.727661,-1.18979 4.229199,0.22634 l 1.161687,1.09606 -0.459921,1.3038 c -0.253029,0.71716 -0.559395,2.16305 -0.681095,3.21324 -0.1217,1.0502 -0.427399,2.73588 -0.679028,3.7455 -0.53697,2.15456 -0.562027,2.55489 -0.158647,2.55489 0.448679,0 1.245889,-2.81092 1.475879,-5.20382 0.28455,-2.96048 1.045615,-5.44884 1.788004,-5.84615 0.906029,-0.4849 2.109878,-0.40924 3.419947,0.21549 1.263298,0.60243 1.793789,1.82602 1.796789,4.14806 0.0017,1.19671 -0.03013,1.24003 -0.47594,0.65061 -0.431999,-0.57118 -0.478174,-0.36796 -0.483174,2.1332 -0.0059,2.75531 0.201202,4.23148 0.592212,4.22248 0.113289,-0.003 0.425694,-0.14891 0.694014,-0.32504 0.42777,-0.28109 0.428705,-0.35793 0.0088,-0.62787 -0.26319,-0.16915 -0.384798,-0.4012 -0.270268,-0.51573 0.11452,-0.11452 0.680722,0.24331 1.258321,0.7953 0.57761,0.55199 1.101887,1.00356 1.164787,1.00356 0.43381,0 -0.09534,-0.84114 -1.324984,-2.10633 -1.359058,-1.39838 -1.420463,-1.5399 -1.096573,-2.53318 0.188659,-0.57859 0.413394,-1.60598 0.499194,-2.28307 l 0.156063,-1.23093 1.26969,1.70222 c 1.672068,2.24107 3.309297,5.63476 3.074747,6.37377 -0.138569,0.4366 0.06751,0.68172 0.809253,0.9617 0.5474,0.20657 0.941733,0.27526 0.876433,0.15245 -0.06528,-0.12282 -0.3822,-0.80896 -0.70435,-1.52446 -1.619909,-3.59782 -2.269233,-4.74017 -3.923792,-6.90294 -0.988839,-1.29256 -1.797823,-2.56511 -1.797823,-2.82773 0,-0.26261 -0.329278,-0.85477 -0.731738,-1.31568 -0.590539,-0.67631 -1.328085,-0.9511 -3.821472,-1.42369 -3.542017,-0.67134 -5.104972,-1.37486 -5.528862,-2.48977 -0.163459,-0.42993 -0.68006,-1.38844 -1.14825,-2.1301 l -0.851628,-1.34876 1.353923,-1.60558 c 1.588808,-1.88423 3.23773,-4.99063 3.24373,-6.11074 0.006,-1.14638 -0.896344,-1.97714 -2.147673,-1.97714 -0.790859,0 -1.57317,0.39842 -2.957959,1.50585 -1.035489,0.8281 -2.049886,1.71238 -2.254126,1.96525 -0.30588,0.37872 -0.495604,0.25828 -1.077453,-0.68316 -0.38849,-0.6286 -1.376476,-1.7324 -2.195215,-2.45308 -1.243959,-1.09498 -1.717503,-1.31051 -2.882512,-1.31051 z m -0.03772,0.62838 c 1.081444,0.0647 2.423574,1.00228 3.744992,2.71508 1.340328,1.73732 1.658731,2.51096 1.034562,2.51096 -0.17659,0 -1.188076,1.06116 -2.247925,2.358 -1.059849,1.29683 -2.197698,2.69631 -2.528528,3.1104 l -0.601514,0.75293 -0.597379,-2.31976 c -0.898009,-3.48598 -1.08392,-7.24918 -0.408761,-8.2796 0.400414,-0.6111 0.955688,-0.8868 1.604553,-0.84801 z m 11.42721,1.03818 c 0.287125,-0.04 0.565463,0.0958 0.967383,0.38964 0.553269,0.40456 0.556403,0.49195 0.05374,1.464 -0.547939,1.05958 -1.222248,1.26628 -2.225187,0.68212 -0.771749,-0.44949 -0.715408,-1.02418 0.183451,-1.86862 0.43734,-0.41085 0.733485,-0.62712 1.02061,-0.66714 z m -2.800863,9.73377 0.839226,1.43144 c 0.461399,0.78733 0.838708,1.58852 0.838708,1.78026 0,0.41731 -0.68245,0.38959 -2.458248,-0.10026 l -1.319299,-0.36432 1.049548,-1.37356 z m -8.142138,19.18798 c -0.07588,0.007 -0.166699,0.15286 -0.329179,0.44235 -0.27624,0.4922 -0.225063,0.71197 0.246496,1.05678 0.65439,0.47851 1.127902,0.53774 1.908411,0.23823 0.837629,-0.32143 0.586912,-0.77824 -0.426847,-0.77824 -0.59572,0 -1.021296,-0.20912 -1.160136,-0.56948 -0.102135,-0.26508 -0.162867,-0.39664 -0.238745,-0.38964 z m 9.476424,0.49041 c -0.219385,-0.002 -0.525949,0.008 -0.933277,0.0217 -1.692558,0.0564 -2.159621,0.40189 -1.104842,0.81753 0.937479,0.36942 1.285591,0.31901 2.04587,-0.29663 0.526222,-0.42609 0.650403,-0.53682 -0.0078,-0.5426 z m 4.501017,0.29972 c -0.740609,0.0349 -0.791961,0.33669 -0.01085,0.79737 0.31303,0.18458 1.008496,0.24775 1.545125,0.14056 1.767529,-0.35305 1.611024,-0.59412 -0.569474,-0.87953 -0.39485,-0.0517 -0.717929,-0.07 -0.964799,-0.0584 z" /><path
                 id="path36"
                 style="fill:#ffaaaa"
                 d="m 30.797752,152.6326 c -0.310574,-0.0104 -0.652761,0.004 -1.033012,0.0429 -2.144116,0.21692 -3.596236,2.38727 -3.180168,4.75371 0.23586,1.34151 1.372103,2.76277 4.041097,5.05447 v 5.2e-4 c 1.320868,1.13416 2.500706,2.06248 2.621546,2.06448 0.864278,0.01 6.225978,-4.90563 6.719486,-6.16035 0.989768,-2.51651 -0.483899,-5.32782 -2.953825,-5.6348 -1.477526,-0.18361 -2.256842,-0.006 -3.01687,0.68575 -0.590378,0.53728 -0.591334,0.53741 -1.112594,0.004 -0.510043,-0.52182 -1.153941,-0.77954 -2.08566,-0.8108 z m -0.415479,0.52761 c 0.783786,-0.002 1.588314,0.31257 2.273246,0.98392 l 0.729155,0.71469 0.820105,-0.76791 c 0.698458,-0.65404 1.029451,-0.76518 2.236039,-0.75138 1.681206,0.0192 2.60309,0.72086 3.06648,2.33422 0.578938,2.01565 -0.366848,3.51859 -4.16047,6.61149 -0.993518,0.80999 -1.907461,1.47119 -2.031401,1.47019 -0.366028,-0.004 -1.605713,-1.05322 -3.772379,-3.1936 -2.328096,-2.29989 -2.804197,-3.33732 -2.260327,-4.92425 0.544073,-1.58746 1.793242,-2.47333 3.099552,-2.47737 z" /></g></g></g></g></g></g></svg>
