<?xml version="1.0" encoding="UTF-8" standalone="no"?>
<!-- Created with Inkscape (http://www.inkscape.org/) -->

<svg
   width="210mm"
   height="297mm"
   viewBox="0 0 210 297"
   version="1.1"
   id="svg1"
   xmlns="http://www.w3.org/2000/svg"
   xmlns:svg="http://www.w3.org/2000/svg">
  <defs
     id="defs1">
    <clipPath
       clipPathUnits="userSpaceOnUse"
       id="clipPath39">
      <path
         style="fill:none;stroke:#000000;stroke-width:0.264583px;stroke-linecap:butt;stroke-linejoin:miter;stroke-opacity:1"
         d="m 42.800598,43.431727 c 0.215913,-1.118318 0.431826,-2.236637 0.647739,-3.354954 0.703115,-1.179243 1.406202,-2.358435 2.109304,-3.537651 0.764013,-0.769554 1.527997,-1.539073 2.291998,-2.308609 1.223531,-0.459517 2.447014,-0.919014 3.670522,-1.378521 2.231144,0.02768 4.4622,0.05536 6.693302,0.08304 1.993082,0.946716 3.986085,1.893393 5.979128,2.840088 0.686506,0.575778 1.372986,1.151535 2.05948,1.727303 0.974394,0.885814 1.948751,1.771594 2.923127,2.65739 2.225611,2.43599 4.45113,4.871884 6.676694,7.307823 0.930106,1.406232 1.860174,2.812407 2.790261,4.21861 0.343252,0.370935 0.686494,0.741854 1.029738,1.112782 0.647753,-0.171628 1.295479,-0.343247 1.943219,-0.514869 1.190312,-1.129414 2.380578,-2.258782 3.570867,-3.388175 1.096195,-0.924568 2.192348,-1.849101 3.288522,-2.773651 2.668516,-2.081664 5.336926,-4.163245 8.005389,-6.244867 1.251212,-0.653288 2.502376,-1.30655 3.753562,-1.959825 1.12388,-0.298963 2.24771,-0.597913 3.37157,-0.896871 1.51695,0.171627 3.03385,0.343247 4.55078,0.514871 1.18477,0.769551 2.3695,1.539071 3.55426,2.308606 0.59263,0.998054 1.18524,1.996067 1.77787,2.994102 0.10028,0.398597 0.20056,0.797182 0.30084,1.195771 0.0102,0.0622 0.0203,0.124402 0.0305,0.186603 0.0355,0.340204 0.0711,0.680397 0.10663,1.020596 0.003,0.1993 0.005,0.398589 0.008,0.597884 -0.0216,0.252616 -0.0432,0.505222 -0.0647,0.75783 -0.0482,0.262771 -0.0965,0.525531 -0.14471,0.788297 -0.0419,0.177718 -0.0838,0.355431 -0.12567,0.533146 -0.11298,0.39987 -0.22595,0.799722 -0.33893,1.199581 -0.12186,0.365593 -0.24372,0.731173 -0.36559,1.096759 -0.08,0.214532 -0.15994,0.429056 -0.23991,0.643585 -0.18788,0.470956 -0.37574,0.941893 -0.56361,1.412838 -0.17772,0.410025 -0.35544,0.820031 -0.53315,1.230048 -0.14471,0.313547 -0.28942,0.627081 -0.43413,0.940623 -0.20946,0.435412 -0.41891,0.870807 -0.62836,1.306208 -0.10536,0.209455 -0.21072,0.418902 -0.31608,0.628354 -0.46334,0.878441 -0.92666,1.756844 -1.38999,2.635269 -0.21453,0.375748 -0.42905,0.751482 -0.64358,1.127222 -0.28562,0.498886 -0.57123,0.997747 -0.85684,1.496621 -0.14472,0.239922 -0.28943,0.479833 -0.43414,0.719749 -0.30085,0.488728 -0.60169,0.977434 -0.90254,1.466154 -0.23104,0.359246 -0.46206,0.718479 -0.69309,1.077717 -0.26912,0.406215 -0.53822,0.812416 -0.80734,1.218623 -0.3694,0.542041 -0.73878,1.084064 -1.10818,1.626097 -0.75785,1.018077 -1.51566,2.036112 -2.27349,3.05417 -0.48873,0.597898 -0.97744,1.195772 -1.466155,1.793658 -0.211995,0.251347 -0.423979,0.502682 -0.635968,0.754023 -0.515385,0.61186 -1.030751,1.223698 -1.546127,1.835547 -0.214532,0.256424 -0.429057,0.512837 -0.643583,0.769255 -0.722302,0.855591 -1.444575,1.711148 -2.166861,2.566723 -0.269119,0.318624 -0.538226,0.637236 -0.807337,0.955855 -0.0021,0.0021 -0.0044,0.0042 -0.0065,0.0062 0.09694,0.152165 0.193882,0.304324 0.290822,0.456489 0.214527,0.341373 0.429043,0.682733 0.643567,1.024099 0.295529,0.466886 0.591051,0.933751 0.886574,1.400627 0.330692,0.523854 0.661371,1.047689 0.992055,1.571532 0.120616,0.190937 0.241226,0.381868 0.361839,0.572802 0.102815,0.162452 0.205621,0.324898 0.308433,0.487349 0.14999,0.238115 0.299974,0.476221 0.449964,0.714333 0.129071,0.209629 0.258138,0.419254 0.387207,0.62888 0.180702,0.300427 0.361394,0.60084 0.542091,0.901261 0.129072,0.219422 0.258141,0.438838 0.38721,0.658254 0.124177,0.215419 0.248349,0.430827 0.37252,0.64624 0.188267,0.333806 0.376529,0.667599 0.56479,1.0014 0.266149,0.489585 0.532299,0.979149 0.798449,1.468723 0.25191,0.486021 0.50381,0.972027 0.75572,1.45804 0.17625,0.368522 0.3525,0.737031 0.52874,1.105548 0.16201,0.377423 0.32401,0.754832 0.48602,1.13225 0.0463,0.11394 0.0926,0.227875 0.13886,0.341812 0.0352,0.07611 0.0703,0.152213 0.10548,0.22832 0.0294,0.05964 0.0588,0.119277 0.0881,0.178916 0.0205,0.03961 0.041,0.07922 0.0614,0.118833 0.0472,0.08501 0.0943,0.170016 0.14153,0.255024 0.0378,0.06364 0.0757,0.127291 0.1135,0.190934 0.0672,0.103703 0.13441,0.207401 0.20161,0.311102 0.0272,0.03872 0.0543,0.07744 0.0815,0.116163 0.0623,0.08412 0.12462,0.168235 0.18692,0.252354 0.065,0.08278 0.12997,0.165563 0.19494,0.248346 0.0823,0.09614 0.16468,0.19227 0.24702,0.288404 0.0356,0.03961 0.0712,0.07922 0.10681,0.118832 0.20251,0.202065 0.40502,0.404122 0.60752,0.606184 0.0708,0.06365 0.14153,0.127288 0.2123,0.190934 0.1896,0.155332 0.37919,0.310655 0.56879,0.465984 0.18159,0.133522 0.36318,0.267041 0.54477,0.400561 0.0467,0.03115 0.0935,0.06231 0.14019,0.09346 0.17714,0.115274 0.35428,0.230545 0.53141,0.345818 0.0587,0.03694 0.1175,0.07388 0.17625,0.110821 0.30755,0.176249 0.61508,0.352494 0.92262,0.528746 0.40191,0.20206 0.80379,0.40412 1.20569,0.60618 0.31289,0.14109 0.62576,0.28217 0.93865,0.42326 0.29731,0.12061 0.59461,0.24122 0.89191,0.36184 0.26928,0.1037 0.53853,0.2074 0.8078,0.3111 0.28084,0.10148 0.56168,0.20295 0.84251,0.30443 0.33025,0.11171 0.66048,0.22342 0.99072,0.33513 0.25459,0.081 0.50916,0.16201 0.76374,0.24301 0.23277,0.0703 0.46554,0.14064 0.69831,0.21096 0.23767,0.0685 0.47533,0.13708 0.713,0.20562 0.28618,0.0815 0.57235,0.16289 0.85853,0.24434 0.30888,0.0823 0.61775,0.16468 0.92663,0.24702 0.26171,0.0668 0.5234,0.13352 0.7851,0.20028 0.0276,0.008 0.0552,0.0151 0.0828,0.0227 0.39612,0.097 0.79222,0.19405 1.18833,0.29107 0.0815,0.0196 0.1629,0.0392 0.24435,0.0588 0.37119,0.0854 0.74237,0.17091 1.11355,0.25636 0.22032,0.0499 0.44062,0.0997 0.66093,0.14954 0.26393,0.0565 0.52785,0.11305 0.79177,0.16957 0.32268,0.0694 0.64535,0.13886 0.96802,0.20829 0.25904,0.0543 0.51806,0.1086 0.77709,0.1629 2.11402,0.40094 4.22795,0.80186 6.34192,1.20279 2.01965,0.49654 4.03922,0.99306 6.05882,1.4896 1.35295,0.43243 2.70582,0.86483 4.05877,1.29725 1.3055,1.1772 2.61092,2.35433 3.91642,3.53153 0.71135,1.47006 1.42267,2.94006 2.134,4.41008 0.0279,0.29569 0.0558,0.59138 0.0837,0.88707 0.10601,0.24548 0.212,0.49095 0.31801,0.73643 0.19391,0.39478 0.38781,0.78954 0.58172,1.18432 0.32547,0.54353 0.65092,1.08703 0.97638,1.63055 0.30268,0.47192 0.60535,0.94383 0.90803,1.41574 0.36126,0.53376 0.72252,1.06751 1.08377,1.60126 0.27014,0.40032 0.54027,0.80063 0.8104,1.20094 0.16598,0.22783 0.33196,0.45564 0.49795,0.68346 2.11069,2.85 4.2213,5.69987 6.33194,8.54981 1.00424,1.50348 2.00843,3.0069 3.01265,4.51035 0.98701,1.69859 1.97399,3.39711 2.96099,5.09567 0.48777,0.93537 0.97552,1.87071 1.46328,2.80606 0.86634,1.75023 1.73265,3.50039 2.59897,5.25059 0.81486,1.78466 1.6297,3.56926 2.44454,5.35389 1.26821,2.77743 2.53636,5.55474 3.80454,8.33211 0.13772,0.28118 0.27544,0.56236 0.41316,0.84354 -0.21232,0.0516 -0.42464,0.10329 -0.63696,0.15493 -31.83346,14.10471 -63.66502,28.20857 -95.498474,42.31328 -3.746979,0.42359 -7.493735,0.84716 -11.240717,1.27076 -6.193389,-3.65859 -12.386402,-7.31695 -18.579789,-10.97553 -2.84977,-3.12301 -5.699426,-6.24589 -8.549139,-9.36883 -2.022642,-2.07407 -4.045203,-4.14805 -6.067804,-6.22207 -1.217014,-1.07989 -2.433978,-2.15973 -3.650967,-3.23959 -0.891334,-0.6685 -1.782632,-1.33698 -2.673948,-2.00546 -1.011321,-1.21702 -2.022602,-2.43398 -3.033903,-3.65097 -0.702782,-1.6284 -1.405536,-3.25673 -2.108305,-4.8851 -0.119987,-2.0055 -0.239969,-4.01092 -0.359954,-6.01638 0.257115,-1.38842 0.514221,-2.77679 0.771331,-4.16519 0.634218,-2.05692 1.268411,-4.11376 1.902617,-6.17065 2.108347,-4.59379 4.21661,-9.18741 6.324915,-13.78111 1.628398,-3.97672 3.256731,-7.95328 4.885097,-11.92992 1.319859,-4.04529 2.639666,-8.09041 3.959499,-12.13561 1.097026,-3.6339 2.194009,-7.26765 3.291013,-10.90148 1.388424,-3.90816 2.776792,-7.816156 4.165188,-11.724233 0.445667,-0.874193 0.891316,-1.748351 1.336974,-2.622526 0.198055,-0.340868 0.396098,-0.681717 0.594152,-1.022584 0.161907,-0.619028 0.323807,-1.238034 0.485711,-1.857052 C 50.205082,88.000304 50.11938,87.81176 50.033677,87.623212 49.845126,87.383238 49.656582,87.143273 49.468034,86.903303 49.039508,85.926264 48.611,84.949264 48.182482,83.972245 47.873944,82.943783 47.565417,81.915362 47.256885,80.886921 47.034052,80.21842 46.811227,79.549947 46.588398,78.88146 c -0.617077,-3.068245 -1.23413,-6.136368 -1.851195,-9.204551 -0.479949,-3.97672 -0.959878,-7.953281 -1.439818,-11.929921 -0.154269,-2.65686 -0.308532,-5.313614 -0.462798,-7.970421 -0.01133,-2.114989 -0.02266,-4.229893 -0.03399,-6.34484 z"
         id="path40-4" />
    </clipPath>
  </defs>
  <g
     id="layer1">
    <g
       id="g42"
       transform="matrix(1.0262686,0,0,1.0262686,-4.036424,-9.0251296)">
      <g
         id="g43">
        <g
           id="g44">
          <g
             id="g41"
             transform="translate(1.5544969,114.25553)">
            <path
               id="rect15"
               style="fill:#f999b7;stroke:#f95b99;stroke-width:6.31402;stroke-linecap:square;stroke-opacity:1;paint-order:markers stroke fill"
               d="m 146.54816,170.45316 c -2.40291,-0.34294 -3.72051,2.2925 -2.11408,4.22817 1.69513,2.04244 4.12119,1.10542 4.12119,-1.59164 0,-1.67568 -0.57648,-2.43243 -2.00711,-2.63653 z" />
            <path
               id="path41"
               style="fill:#f999b7;stroke:#f95b99;stroke-width:6.31402;stroke-linecap:square;stroke-opacity:1;paint-order:markers stroke fill"
               d="m 76.510059,170.42474 c -1.933775,0.2495 -2.683028,2.33915 -1.181324,4.14858 1.771333,2.13433 4.211113,1.27483 4.211113,-1.48363 0,-1.71926 -0.5727,-2.43172 -2.131653,-2.65306 -0.321501,-0.0457 -0.621884,-0.0475 -0.898136,-0.0119 z" />
            <path
               id="path40"
               style="fill:#f999b7;stroke:#f95b99;stroke-width:6.31402;stroke-linecap:square;stroke-opacity:1;paint-order:markers stroke fill"
               d="m 146.69854,167.43061 c -4.89297,0 -7.27599,4.96832 -4.23643,8.83253 2.25349,2.86485 4.28314,3.15396 7.30084,1.04025 3.92209,-2.74711 1.71033,-9.87278 -3.06441,-9.87278 z m -0.15038,3.02255 c 1.43063,0.2041 2.00711,0.96085 2.00711,2.63653 0,2.69706 -2.42606,3.63408 -4.12119,1.59164 -1.60643,-1.93567 -0.28883,-4.57111 2.11408,-4.22817 z" />
            <path
               id="path38"
               style="fill:#f999b7;stroke:#f95b99;stroke-width:6.31402;stroke-linecap:square;stroke-opacity:1;paint-order:markers stroke fill"
               d="m 76.965845,167.43061 c -2.25666,0 -5.462199,3.32849 -5.462199,5.672 0,1.03995 0.850941,2.74173 1.89084,3.78168 3.550241,3.5502 9.454204,1.1886 9.454204,-3.78168 0,-2.9091 -2.865892,-5.672 -5.882845,-5.672 z m -0.455786,2.99413 c 0.276252,-0.0356 0.576635,-0.0338 0.898136,0.0119 1.558953,0.22134 2.131653,0.9338 2.131653,2.65306 0,2.75846 -2.43978,3.61796 -4.211113,1.48363 -1.501704,-1.80943 -0.752451,-3.89908 1.181324,-4.14858 z" />
            <path
               id="path36"
               style="fill:#f999b7;stroke:#f95b99;stroke-width:6.31402;stroke-linecap:square;stroke-opacity:1;paint-order:markers stroke fill"
               d="m 110.6842,139.068 c -1.27059,0 -1.42035,0.4942 -0.78755,2.59984 0.93646,3.11555 0.89072,10.10549 -0.0894,13.70821 -0.56578,2.07961 -0.39189,2.60035 0.8692,2.60035 1.88096,0 4.31601,-5.33431 4.31601,-9.4542 0,-4.10977 -2.43527,-9.4542 -4.30826,-9.4542 z" />
            <path
               id="path35"
               style="fill:#f999b7;stroke:#f95b99;stroke-width:6.31402;stroke-linecap:square;stroke-opacity:1;paint-order:markers stroke fill"
               d="m 179.01336,122.16877 c -14.36095,0.0543 -20.55434,6.22656 -14.59239,15.10502 1.63341,2.43251 3.8869,3.90107 9.28264,6.04873 9.79604,3.89903 12.01498,5.56786 14.48284,10.89442 1.98514,4.28483 2.24245,4.49667 3.69796,3.04116 1.23148,-1.23147 1.81011,-1.3186 2.7187,-0.40979 0.90855,0.9086 0.639,1.66891 -1.26711,3.57497 -2.94725,2.94727 -8.96298,3.99667 -11.59929,2.02314 -2.37094,-1.77493 -1.09475,-3.86247 1.90169,-3.11041 2.66346,0.66849 2.84536,-0.34494 0.81132,-4.52582 -1.97362,-4.05664 -5.18612,-6.19302 -11.21172,-7.45691 -4.32234,-0.90663 -5.7279,-0.81582 -9.4635,0.61082 -12.51049,4.77781 -7.99482,21.56413 6.94014,25.79945 5.32202,1.50925 15.53401,0.95317 20.49384,-1.11569 8.31914,-3.47009 12.97863,-11.42955 10.84999,-18.53427 -1.30646,-4.36052 -7.69316,-10.33392 -14.48284,-13.54594 -5.57932,-2.63946 -8.6547,-6.73047 -5.86476,-7.80108 0.90154,-0.34601 2.03624,0.23936 2.92592,1.50947 4.91964,7.02374 16.27602,1.59424 12.76821,-6.10454 -1.66668,-3.65797 -6.394,-5.47711 -15.41197,-5.9309 -1.02882,-0.0518 -2.02227,-0.0755 -2.97967,-0.0718 z" />
            <path
               id="path34"
               style="fill:#f999b7;stroke:#f95b99;stroke-width:6.31402;stroke-linecap:square;stroke-opacity:1;paint-order:markers stroke fill"
               d="m 24.273971,122.05043 c -9.68357,0 -15.8516535,6.85274 -13.253455,14.7252 0.985197,2.9853 0.838966,4.00809 -1.2536703,8.7452 -5.5002249,12.45119 -3.5992623,22.19704 5.4007043,27.68514 3.479155,2.12157 6.142593,2.24425 10.369909,0.478 5.061454,-2.1148 8.0638,-8.40493 9.468673,-19.83548 0.545462,-4.43817 0.490715,-4.57628 -1.558561,-3.93464 -6.292053,1.97008 -8.75818,-0.49433 -2.931087,-2.92902 6.0643,-2.53386 15.461071,-0.60512 15.461071,3.17345 0,1.35722 -1.907849,1.27689 -5.880261,-0.24753 -1.10516,-0.42397 -1.20734,0.62897 -0.606164,6.25543 1.361861,12.7456 7.311182,19.94727 15.248164,18.4583 10.88973,-2.04291 15.477678,-15.83582 9.613884,-28.90211 -2.340753,-5.21596 -2.389055,-5.63756 -0.965833,-8.38967 4.190483,-8.10355 -1.12163,-15.28227 -11.308353,-15.28227 -2.442365,0 -5.603563,0.71588 -7.122046,1.61282 -2.940219,1.73687 -5.597591,6.36461 -5.597591,9.74876 0,2.12325 0.757182,2.19364 4.963521,0.46199 2.771463,-1.14095 2.042461,2.82299 -0.753442,4.09691 -5.294855,2.41244 -16.027446,0.59607 -16.027446,-2.7125 0,-1.41311 0.767273,-1.46315 5.483903,-0.35553 2.465666,0.57905 2.612364,0.4512 2.127519,-1.86087 -0.286441,-1.36559 -0.738813,-3.53481 -1.005107,-4.82038 -0.870709,-4.20366 -4.019167,-6.1712 -9.874332,-6.1712 z" />
            <path
               id="path33"
               style="fill:#f999b7;stroke:#f95b99;stroke-width:6.31402;stroke-linecap:square;stroke-opacity:1;paint-order:markers stroke fill"
               d="m 111.84744,122.04216 c -3.75977,0.0819 -7.58547,0.84144 -10.63036,2.2593 -11.29342,5.25875 -16.385322,19.36412 -12.144997,33.6429 1.764981,5.9433 9.270707,14.11172 14.575857,15.8626 5.27755,1.74182 14.02134,0.98395 19.39209,-1.68052 17.9861,-8.92292 17.37488,-39.77429 -0.95653,-48.27974 -2.78214,-1.29087 -6.47631,-1.88646 -10.23606,-1.80454 z M 110.6842,139.068 c 1.87299,0 4.30826,5.34443 4.30826,9.4542 0,4.11989 -2.43505,9.4542 -4.31601,9.4542 -1.26109,0 -1.43498,-0.52074 -0.8692,-2.60035 0.98012,-3.60272 1.02586,-10.59266 0.0894,-13.70821 -0.6328,-2.10564 -0.48304,-2.59984 0.78755,-2.59984 z" />
          </g>
          <path
             id="rect6"
             style="fill:#f999b7;fill-opacity:1;stroke:#f95b99;stroke-width:6.839;stroke-linecap:square;stroke-dasharray:none;stroke-opacity:1;paint-order:markers stroke fill"
             d="m 133.07885,14.792543 c -6.08352,-2.04728 -13.29599,0.09818 -18.3378,6.622778 -5.04003,6.522429 -4.46586,12.101722 2.72729,26.48324 6.6944,13.384127 10.80211,20.226016 12.49862,20.823494 0.575,0.20066 5.87244,-1.429836 11.77552,-3.626673 22.54014,-8.388637 29.31724,-13.884622 29.81191,-24.177348 0.39595,-8.238473 -2.78311,-12.960783 -10.57392,-15.709076 -5.59139,-1.972539 -7.30694,-1.978963 -11.5907,-0.04096 l -5.02994,2.275234 -2.26159,-4.478025 c -2.12458,-4.206498 -5.36991,-6.942371 -9.01939,-8.172664 z" />
          <path
             id="rect1"
             style="fill:#f999b7;fill-opacity:1;stroke:#f95b99;stroke-width:7.219;stroke-linecap:square;stroke-dasharray:none;stroke-opacity:1;paint-order:markers stroke fill"
             d="m 40.928081,10.36907 c -20.66857,0 -37.3077996,16.639747 -37.3077996,37.308317 V 201.67419 c 0,20.66857 16.6392296,37.3078 37.3077996,37.3078 H 167.81956 c 20.66857,0 37.3078,-16.63923 37.3078,-37.3078 V 47.677387 c 0,-20.66857 -16.63923,-37.308317 -37.3078,-37.308317 z m 13.812077,22.38158 h 10e-4 c 5.102542,0 7.17674,0.944396 12.62507,5.740218 3.585939,3.156454 7.912881,7.990888 9.6144,10.744047 2.548402,4.123344 3.379392,4.650793 4.719092,2.992065 0.894542,-1.107527 5.337512,-4.980809 9.872782,-8.607743 6.06514,-4.850351 9.491448,-6.594946 12.955278,-6.594946 5.48061,0 9.43296,3.638473 9.40666,8.659419 -0.0263,4.905888 -7.24817,18.511137 -14.206878,26.763741 l -5.93039,7.032129 3.73,5.907653 c 2.0506,3.248333 4.313238,7.446118 5.029158,9.329138 1.85656,4.88311 8.70214,7.964409 24.21557,10.904759 10.92062,2.06986 14.15102,3.27368 16.73748,6.2358 1.76271,2.01871 3.20497,4.61225 3.20497,5.76244 0,1.15023 3.543,6.72358 7.87394,12.38477 7.24668,9.47255 14.39782,20.89077 20.5623,37.0353 0.82136,2.15111 -3.44168,-0.81388 -2.43608,1.80134 0.10278,0.26731 -103.685827,46.60213 -105.941176,45.83957 -3.24873,0.48396 -109.73411,64.33418 104.926436,-47.38866 3.01228,-1.56778 -10.36739,-23.35705 -17.69077,-33.17255 l -5.5609,-7.45536 -0.68368,5.39088 c -0.37579,2.96554 -1.36013,7.46579 -2.18643,9.99991 -1.41858,4.35039 -1.14964,4.97027 4.80281,11.09493 5.38578,5.54131 7.70327,9.22528 5.80326,9.22528 -0.27549,0 -2.57167,-1.97798 -5.1015,-4.3956 -2.52974,-2.41762 -5.00972,-3.98457 -5.51129,-3.48299 -0.50163,0.50162 0.0312,1.51792 1.18391,2.25877 1.83828,1.18229 1.83377,1.51859 -0.0398,2.74971 -1.17519,0.77142 -2.54342,1.41058 -3.03961,1.42368 -1.71256,0.0394 -2.61994,-6.42617 -2.59364,-18.49396 0.0219,-10.95464 0.22406,-11.84477 2.11615,-9.3431 1.9527,2.58156 2.09363,2.39194 2.08463,-2.84944 -0.0131,-10.17014 -2.33677,-15.52933 -7.86981,-18.16788 -5.73787,-2.73621 -11.87473,-5.08472 -15.84298,-2.96094 -3.25155,1.74015 -5.72072,14.6561 -6.96699,27.62248 -1.00732,10.48049 -4.49854,22.79189 -6.46369,22.79189 -1.76673,0 -1.6573,-1.75341 0.69453,-11.19001 1.1021,-4.42196 2.44095,-11.80499 2.97398,-16.40468 0.53303,-4.59965 1.87505,-10.93253 2.98328,-14.07356 l 2.01435,-5.71025 -3.07074,-4.80074 c -6.57644,-6.2024 -15.375488,-6.564 -20.540228,-0.99115 -3.78272,4.08169 -11.167552,26.06425 -12.837973,38.2142 -0.538543,3.91719 -1.576649,8.72445 -2.308386,10.68307 -1.141033,3.05396 -1.51725,3.23078 -2.632398,1.23817 -0.863877,-1.54358 -0.07423,-7.52074 2.349211,-17.80615 4.587735,-19.4703 8.558206,-30.71995 12.238016,-34.66972 1.57852,-1.69417 2.42875,-3.51771 1.89187,-4.053499 -0.53688,-0.53578 -5.69458,-0.84707 -11.463382,-0.69246 -12.440724,0.33374 -18.753792,3.058379 -20.028235,8.645979 -0.488131,2.1402 -1.737092,7.0961 -2.775024,11.01328 -1.037931,3.91719 -2.304636,11.28961 -2.813265,16.38195 -1.109979,11.11255 -3.479603,19.94245 -5.353162,19.94245 -0.750965,0 -0.985826,-1.76363 -0.520382,-3.91811 0.465488,-2.15443 1.527354,-8.72485 2.358513,-14.60066 2.685797,-18.98755 5.907244,-31.45255 9.048543,-35.00923 1.92489,-2.179369 5.965984,-4.090859 11.04067,-5.223969 7.922494,-1.76901 8.117783,-1.93981 19.272724,-16.744195 C 102.0223,64.681045 106.83099,57.70753 106.83099,56.305284 c 0,-0.41893 -1.30513,-0.762744 -2.89956,-0.762744 -1.59447,0 -4.522558,-1.064948 -6.507098,-2.36523 -2.87593,-1.884508 -3.42275,-3.110905 -2.69079,-6.051827 l 0.9188,-3.689181 -4.02662,3.732072 c -2.21431,2.053044 -7.78961,7.181286 -12.391495,11.395687 -4.601883,4.214488 -11.235181,11.379554 -14.739152,15.923059 -5.947147,7.711552 -17.647407,28.5514 -17.221688,30.67461 0.104678,0.5219 -0.570977,2.79444 -1.500683,5.05189 -0.929706,2.25741 -2.34521,7.06674 -3.146062,10.68513 -0.800895,3.6184 -4.95096,13.81214 -9.222692,22.65392 -7.797757,16.14014 -9.134556,22.15081 -6.165516,27.69857 0.88004,1.64435 7.44835,8.7168 14.598593,15.71687 9.47628,9.27734 15.415147,13.82273 21.904606,16.769 4.896471,2.22311 22.244958,5.30615 19.33029,6.81494 -1.970358,1.01996 -20.278835,1.31259 -25.384701,-5.28687 l -0.441316,3.28236 C 53.32872,206.29758 46.71646,197.0469 42.015811,192.00398 c -4.700649,-5.0429 -9.83792,-10.08635 -11.418424,-11.20811 -9.820668,-6.97027 -10.260462,-17.37591 -1.48053,-35.0454 5.956258,-11.98684 7.508286,-16.21723 15.064713,-41.06365 1.667839,-5.484059 3.912159,-11.341219 4.988326,-13.014189 1.07814,-1.672955 1.542622,-3.457585 1.034562,-3.965645 C 47.509901,85.012423 43.970731,68.689773 43.231241,55.54254 42.44769,41.611274 42.604944,40.317416 45.512755,36.668757 48.045872,33.490142 49.785376,32.75065 54.740099,32.75065 Z m -0.164848,2.752286 c -2.841939,-0.169893 -5.274268,1.03799 -7.027995,3.714502 -2.957084,4.513062 -2.142539,20.994918 1.790589,36.262903 l 2.616377,10.160102 2.634465,-3.297472 c 1.448979,-1.813648 6.4323,-7.943056 11.074259,-13.622941 4.64196,-5.679936 9.072478,-10.327535 9.845911,-10.327535 2.733757,0 1.338907,-3.388618 -4.531506,-10.997778 C 65.189818,39.892949 59.311829,35.786311 54.57531,35.502936 Z m 50.04914,4.54701 c -1.25758,0.175281 -2.55505,1.12285 -4.47053,2.922302 -3.936858,3.698501 -4.183188,6.215308 -0.803048,8.183997 4.392648,2.55852 7.345778,1.653362 9.745648,-2.987415 2.20179,-4.257411 2.1881,-4.64011 -0.23512,-6.412012 -1.76035,-1.286968 -2.97941,-1.882065 -4.23695,-1.706872 z m -12.267468,42.632537 -4.5992,6.015663 -4.59662,6.016165 5.77846,1.59576 c 7.77769,2.14546 10.76678,2.267 10.76678,0.43925 0,-0.83978 -1.65282,-4.34909 -3.67367,-7.797445 z M 56.696111,166.72231 c 0.332341,-0.0307 0.598102,0.54587 1.045414,1.70688 0.608094,1.57831 2.472193,2.4939 5.081344,2.4939 4.440093,0 5.538327,2.00077 1.869653,3.40858 -3.418499,1.3118 -5.492548,1.05244 -8.358663,-1.04335 -2.065351,-1.51021 -2.289404,-2.47239 -1.079521,-4.62814 0.711635,-1.26792 1.109343,-1.90717 1.441773,-1.93787 z m 41.503921,2.14819 h 0.001 c 2.882058,0.0255 2.338508,0.51071 0.0341,2.3766 -3.32989,2.6964 -4.85469,2.91715 -8.96069,1.29915 -4.61975,-1.82043 -2.57414,-3.33364 4.83898,-3.58066 1.78354,-0.06 3.12577,-0.10406 4.08657,-0.0951 z m 19.714558,1.31258 c 1.08125,-0.0508 2.49621,0.0294 4.22558,0.2558 9.55021,1.25005 10.23591,2.30618 2.49442,3.85248 -2.35029,0.46948 -5.39652,0.19245 -6.76754,-0.61598 -3.42095,-2.0177 -3.19621,-3.33945 0.0475,-3.4923 z"
             clip-path="url(#clipPath39)"
             transform="matrix(0.9822061,0.42403778,-0.42403778,0.9822061,66.33417,-7.5043897)" />
        </g>
      </g>
    </g>
  </g>
</svg>
