<?xml version="1.0" encoding="UTF-8" standalone="no"?>
<!-- Created with Inkscape (http://www.inkscape.org/) -->

<svg
   width="276.1319mm"
   height="63.053616mm"
   viewBox="0 0 276.1319 63.053616"
   version="1.1"
   id="svg1"
   xmlns:inkscape="http://www.inkscape.org/namespaces/inkscape"
   xmlns:sodipodi="http://sodipodi.sourceforge.net/DTD/sodipodi-0.dtd"
   xmlns="http://www.w3.org/2000/svg"
   xmlns:svg="http://www.w3.org/2000/svg">
  <sodipodi:namedview
     id="namedview1"
     pagecolor="#ffffff"
     bordercolor="#666666"
     borderopacity="1.0"
     inkscape:showpageshadow="2"
     inkscape:pageopacity="0.0"
     inkscape:pagecheckerboard="0"
     inkscape:deskcolor="#d1d1d1"
     inkscape:document-units="mm"
     showgrid="true">
    <inkscape:grid
       id="grid1"
       units="px"
       originx="-219.002"
       originy="-160.64663"
       spacingx="0.26458333"
       spacingy="0.26458334"
       empcolor="#0099e5"
       empopacity="0.30196078"
       color="#0099e5"
       opacity="0.14901961"
       empspacing="5"
       dotted="false"
       gridanglex="30"
       gridanglez="30"
       visible="true" />
  </sodipodi:namedview>
  <defs
     id="defs1" />
  <g
     inkscape:label="Layer 1"
     inkscape:groupmode="layer"
     id="layer1"
     transform="translate(-219.00199,-160.64663)">
    <g
       id="g1">
      <g
         id="g2"
         transform="translate(-33.421684,-50.909775)">
        <g
           id="g41"
           transform="translate(248.89818,92.768914)">
          <path
             id="rect15"
             style="fill:#f999b7;stroke:#f95b99;stroke-width:6.31402;stroke-linecap:square;stroke-opacity:1;paint-order:markers stroke fill"
             d="m 146.54816,170.45316 c -2.40291,-0.34294 -3.72051,2.2925 -2.11408,4.22817 1.69513,2.04244 4.12119,1.10542 4.12119,-1.59164 0,-1.67568 -0.57648,-2.43243 -2.00711,-2.63653 z" />
          <path
             id="path41"
             style="fill:#f999b7;stroke:#f95b99;stroke-width:6.31402;stroke-linecap:square;stroke-opacity:1;paint-order:markers stroke fill"
             d="m 76.510059,170.42474 c -1.933775,0.2495 -2.683028,2.33915 -1.181324,4.14858 1.771333,2.13433 4.211113,1.27483 4.211113,-1.48363 0,-1.71926 -0.5727,-2.43172 -2.131653,-2.65306 -0.321501,-0.0457 -0.621884,-0.0475 -0.898136,-0.0119 z" />
          <path
             id="path40"
             style="fill:#f999b7;stroke:#f95b99;stroke-width:6.31402;stroke-linecap:square;stroke-opacity:1;paint-order:markers stroke fill"
             d="m 146.69854,167.43061 c -4.89297,0 -7.27599,4.96832 -4.23643,8.83253 2.25349,2.86485 4.28314,3.15396 7.30084,1.04025 3.92209,-2.74711 1.71033,-9.87278 -3.06441,-9.87278 z m -0.15038,3.02255 c 1.43063,0.2041 2.00711,0.96085 2.00711,2.63653 0,2.69706 -2.42606,3.63408 -4.12119,1.59164 -1.60643,-1.93567 -0.28883,-4.57111 2.11408,-4.22817 z" />
          <path
             id="path38"
             style="fill:#f999b7;stroke:#f95b99;stroke-width:6.31402;stroke-linecap:square;stroke-opacity:1;paint-order:markers stroke fill"
             d="m 76.965845,167.43061 c -2.25666,0 -5.462199,3.32849 -5.462199,5.672 0,1.03995 0.850941,2.74173 1.89084,3.78168 3.550241,3.5502 9.454204,1.1886 9.454204,-3.78168 0,-2.9091 -2.865892,-5.672 -5.882845,-5.672 z m -0.455786,2.99413 c 0.276252,-0.0356 0.576635,-0.0338 0.898136,0.0119 1.558953,0.22134 2.131653,0.9338 2.131653,2.65306 0,2.75846 -2.43978,3.61796 -4.211113,1.48363 -1.501704,-1.80943 -0.752451,-3.89908 1.181324,-4.14858 z" />
          <path
             id="path36"
             style="fill:#f999b7;stroke:#f95b99;stroke-width:6.31402;stroke-linecap:square;stroke-opacity:1;paint-order:markers stroke fill"
             d="m 110.6842,139.068 c -1.27059,0 -1.42035,0.4942 -0.78755,2.59984 0.93646,3.11555 0.89072,10.10549 -0.0894,13.70821 -0.56578,2.07961 -0.39189,2.60035 0.8692,2.60035 1.88096,0 4.31601,-5.33431 4.31601,-9.4542 0,-4.10977 -2.43527,-9.4542 -4.30826,-9.4542 z" />
          <path
             id="path35"
             style="fill:#f999b7;stroke:#f95b99;stroke-width:6.31402;stroke-linecap:square;stroke-opacity:1;paint-order:markers stroke fill"
             d="m 179.01336,122.16877 c -14.36095,0.0543 -20.55434,6.22656 -14.59239,15.10502 1.63341,2.43251 3.8869,3.90107 9.28264,6.04873 9.79604,3.89903 12.01498,5.56786 14.48284,10.89442 1.98514,4.28483 2.24245,4.49667 3.69796,3.04116 1.23148,-1.23147 1.81011,-1.3186 2.7187,-0.40979 0.90855,0.9086 0.639,1.66891 -1.26711,3.57497 -2.94725,2.94727 -8.96298,3.99667 -11.59929,2.02314 -2.37094,-1.77493 -1.09475,-3.86247 1.90169,-3.11041 2.66346,0.66849 2.84536,-0.34494 0.81132,-4.52582 -1.97362,-4.05664 -5.18612,-6.19302 -11.21172,-7.45691 -4.32234,-0.90663 -5.7279,-0.81582 -9.4635,0.61082 -12.51049,4.77781 -7.99482,21.56413 6.94014,25.79945 5.32202,1.50925 15.53401,0.95317 20.49384,-1.11569 8.31914,-3.47009 12.97863,-11.42955 10.84999,-18.53427 -1.30646,-4.36052 -7.69316,-10.33392 -14.48284,-13.54594 -5.57932,-2.63946 -8.6547,-6.73047 -5.86476,-7.80108 0.90154,-0.34601 2.03624,0.23936 2.92592,1.50947 4.91964,7.02374 16.27602,1.59424 12.76821,-6.10454 -1.66668,-3.65797 -6.394,-5.47711 -15.41197,-5.9309 -1.02882,-0.0518 -2.02227,-0.0755 -2.97967,-0.0718 z" />
          <path
             id="path34"
             style="fill:#f999b7;stroke:#f95b99;stroke-width:6.31402;stroke-linecap:square;stroke-opacity:1;paint-order:markers stroke fill"
             d="m 24.273971,122.05043 c -9.68357,0 -15.8516535,6.85274 -13.253455,14.7252 0.985197,2.9853 0.838966,4.00809 -1.2536703,8.7452 -5.5002249,12.45119 -3.5992623,22.19704 5.4007043,27.68514 3.479155,2.12157 6.142593,2.24425 10.369909,0.478 5.061454,-2.1148 8.0638,-8.40493 9.468673,-19.83548 0.545462,-4.43817 0.490715,-4.57628 -1.558561,-3.93464 -6.292053,1.97008 -8.75818,-0.49433 -2.931087,-2.92902 6.0643,-2.53386 15.461071,-0.60512 15.461071,3.17345 0,1.35722 -1.907849,1.27689 -5.880261,-0.24753 -1.10516,-0.42397 -1.20734,0.62897 -0.606164,6.25543 1.361861,12.7456 7.311182,19.94727 15.248164,18.4583 10.88973,-2.04291 15.477678,-15.83582 9.613884,-28.90211 -2.340753,-5.21596 -2.389055,-5.63756 -0.965833,-8.38967 4.190483,-8.10355 -1.12163,-15.28227 -11.308353,-15.28227 -2.442365,0 -5.603563,0.71588 -7.122046,1.61282 -2.940219,1.73687 -5.597591,6.36461 -5.597591,9.74876 0,2.12325 0.757182,2.19364 4.963521,0.46199 2.771463,-1.14095 2.042461,2.82299 -0.753442,4.09691 -5.294855,2.41244 -16.027446,0.59607 -16.027446,-2.7125 0,-1.41311 0.767273,-1.46315 5.483903,-0.35553 2.465666,0.57905 2.612364,0.4512 2.127519,-1.86087 -0.286441,-1.36559 -0.738813,-3.53481 -1.005107,-4.82038 -0.870709,-4.20366 -4.019167,-6.1712 -9.874332,-6.1712 z" />
          <path
             id="path33"
             style="fill:#f999b7;stroke:#f95b99;stroke-width:6.31402;stroke-linecap:square;stroke-opacity:1;paint-order:markers stroke fill"
             d="m 111.84744,122.04216 c -3.75977,0.0819 -7.58547,0.84144 -10.63036,2.2593 -11.29342,5.25875 -16.385322,19.36412 -12.144997,33.6429 1.764981,5.9433 9.270707,14.11172 14.575857,15.8626 5.27755,1.74182 14.02134,0.98395 19.39209,-1.68052 17.9861,-8.92292 17.37488,-39.77429 -0.95653,-48.27974 -2.78214,-1.29087 -6.47631,-1.88646 -10.23606,-1.80454 z M 110.6842,139.068 c 1.87299,0 4.30826,5.34443 4.30826,9.4542 0,4.11989 -2.43505,9.4542 -4.31601,9.4542 -1.26109,0 -1.43498,-0.52074 -0.8692,-2.60035 0.98012,-3.60272 1.02586,-10.59266 0.0894,-13.70821 -0.6328,-2.10564 -0.48304,-2.59984 0.78755,-2.59984 z" />
        </g>
        <path
           id="rect6"
           style="fill:#f999b7;fill-opacity:1;stroke:#f95b99;stroke-width:6.99633;stroke-linecap:square;stroke-dasharray:none;stroke-opacity:1;paint-order:markers stroke fill"
           d="m 476.06935,215.05461 c -6.90319,0.0213 -13.50454,4.7027 -16.37968,13.09164 -2.87407,8.38613 -0.35802,13.86842 11.94484,26.02219 11.4497,11.31083 18.00082,16.85553 19.93511,16.87662 0.65495,0.006 5.48457,-3.48879 10.73484,-7.76917 20.04738,-16.34443 25.04553,-24.2867 21.98618,-34.93842 -2.44881,-8.5258 -7.32057,-12.23374 -16.20487,-12.33521 -6.37621,-0.0729 -8.12528,0.5144 -11.81629,3.97068 l -4.33407,4.05795 -3.85302,-3.7768 c -3.6195,-3.54775 -7.87111,-5.21009 -12.01304,-5.19948 z" />
      </g>
    </g>
  </g>
</svg>
