<?xml version="1.0" encoding="UTF-8" standalone="no"?>
<!-- Created with Inkscape (http://www.inkscape.org/) -->

<svg
   width="68.438248mm"
   height="15.438125mm"
   viewBox="0 0 68.438248 15.438125"
   version="1.1"
   id="svg1"
   xml:space="preserve"
   xmlns="http://www.w3.org/2000/svg"
   xmlns:svg="http://www.w3.org/2000/svg"><defs
     id="defs1"><linearGradient
       id="swatch30"><stop
         style="stop-color:#00000f;stop-opacity:1;"
         offset="0"
         id="stop30" /></linearGradient></defs><g
     id="layer1"
     transform="translate(-237.39719,-205.00504)"><g
       id="g75"
       transform="matrix(1.0217986,0,0,1.0217986,87.885162,129.02389)"><g
         id="g182"
         transform="translate(143.53312,64.674337)"><g
           id="g181"><g
             id="g183"><path
               id="path180"
               style="fill:#ff0000;fill-opacity:1;stroke:none;stroke-width:0.467;stroke-dasharray:none;stroke-opacity:1"
               d="m 58.852901,9.6952543 c -0.338521,-0.00794 -0.711616,0.0032 -1.126133,0.032203 -2.337438,0.1630782 -3.920503,1.7957177 -3.466924,3.5753227 0.257255,1.008819 1.49581,2.07761 4.405467,3.800998 1.439952,0.852895 2.726192,1.551101 2.857914,1.552374 0.942208,0.0075 6.787373,-3.689266 7.325362,-4.632831 1.079032,-1.892432 -0.527512,-4.006246 -3.220157,-4.2370887 -1.610734,-0.1381336 -2.460346,-0.00463 -3.288873,0.5156257 -0.643631,0.404272 -0.644679,0.404172 -1.212928,0.0032 C 60.570598,9.9126696 59.868642,9.7189108 58.852901,9.6953998 Z m -0.45295,0.3973007 c 0.854454,-0.0019 1.731537,0.234862 2.478212,0.739749 l 0.79489,0.537179 0.893508,-0.577148 c 0.761409,-0.491826 1.122869,-0.575743 2.438214,-0.565386 1.832787,0.01464 2.837775,0.542446 3.342966,1.755725 0.631122,1.515784 -0.399937,2.645865 -4.5356,4.971749 -1.08308,0.609121 -2.08002,1.106362 -2.215149,1.105308 -0.399045,-0.0032 -1.749932,-0.791846 -4.111929,-2.401434 -2.537996,-1.729534 -3.057027,-2.510059 -2.464152,-3.70344 0.593152,-1.193785 1.954936,-1.859267 3.37904,-1.862302 z m 8.800791,8.320593 v 4e-4 c -1.448641,0.04697 -3.173849,0.932655 -5.311356,2.70862 l -0.919975,0.764041 -0.621946,-1.029693 c -1.025624,-1.697717 -2.865258,-2.517085 -4.584059,-2.041745 -1.840628,0.509033 -2.146726,1.566598 -1.205557,4.164213 0.200558,0.553621 0.367547,1.201238 0.458574,1.716149 0.193159,-0.03091 0.387167,-0.05968 0.58306,-0.08541 -0.09495,-0.511304 -0.262493,-1.15754 -0.463074,-1.725558 -0.770782,-2.182346 -0.716854,-2.958602 0.240437,-3.466 0.472316,-0.250311 0.965563,-0.364004 1.455734,-0.349888 1.078337,0.03123 2.139867,0.681424 2.918755,1.859159 0.795309,1.20253 0.776319,1.272403 -0.656299,2.417108 h 5.19e-4 c -0.399497,0.31923 -0.875981,0.699536 -1.362181,1.087682 0.259217,-0.0088 0.520354,-0.01367 0.783068,-0.01367 h 0.100141 c 2.399559,-1.983028 4.743617,-3.824678 5.769912,-4.489425 2.076764,-1.345157 3.832497,-1.502723 4.651672,-0.41728 0.665176,0.881401 -1.560237,3.731177 -3.487756,4.906705 h 0.978543 l 1.088957,-1.09474 c 2.555873,-2.570143 2.817473,-3.993677 0.865327,-4.709618 -0.317302,-0.116372 -0.648921,-0.182757 -0.996563,-0.19866 -0.09429,-0.0042 -0.189551,-0.0055 -0.286103,-0.0024 z" /><path
               style="fill:#f9f9f9;fill-opacity:1;stroke:none;stroke-width:1.26934"
               d="M 6.1147155,24.583853 C 3.0646122,23.664418 1.850029,19.664243 3.5871073,16.259287 3.9526289,15.542806 3.999233,15.185324 3.8270326,14.418917 3.400455,12.520359 4.1940078,10.987407 6.0458288,10.132736 7.0662851,9.6617652 8.6383672,9.556201 9.5178144,9.8995946 c 0.6197676,0.2419994 1.5044486,1.0247114 1.6808816,1.4871444 0.0829,0.217282 0.234827,0.150202 0.512612,-0.226333 0.59573,-0.807507 2.096287,-1.4745379 3.317127,-1.4745379 2.906828,0 4.740252,2.1939449 3.865734,4.6258819 -0.318785,0.8865 -0.309886,1.052757 0.107714,2.012257 0.586338,1.347192 0.789127,3.893391 0.403215,5.06272 -0.665008,2.014988 -3.056427,3.664247 -4.830548,3.33142 -1.049462,-0.196881 -2.148885,-1.11383 -2.751303,-2.294668 -0.257016,-0.503793 -0.516909,-0.915988 -0.577539,-0.915988 -0.06064,0 -0.258751,0.345783 -0.440267,0.768405 -0.8423616,1.961277 -2.7412959,2.895601 -4.6907255,2.307957 z m 2.2669815,-1.03956 c 1.2657877,-0.52888 2.016718,-2.101888 2.368058,-4.960475 0.136416,-1.109911 0.122683,-1.14457 -0.389807,-0.984105 -1.5735454,0.492689 -2.1902234,-0.123495 -0.7329631,-0.73238 1.5165861,-0.63367 3.8664631,-0.151351 3.8664631,0.793602 0,0.339426 -0.477098,0.319353 -1.470541,-0.06187 -0.276384,-0.106054 -0.301888,0.157196 -0.151541,1.564278 0.340579,3.187465 1.828398,4.988519 3.813313,4.616147 2.723336,-0.510901 3.870725,-3.960256 2.404286,-7.227918 -0.585392,-1.304428 -0.59754,-1.409911 -0.241623,-2.098175 1.047977,-2.026564 -0.280423,-3.821803 -2.82797,-3.821803 -0.610785,0 -1.401424,0.179051 -1.781165,0.403368 -0.735298,0.434353 -1.399786,1.591696 -1.399786,2.438021 0,0.530981 0.18934,0.548605 1.24127,0.115549 0.693094,-0.285334 0.510762,0.705885 -0.188448,1.024466 -1.324143,0.60332 -4.0082264,0.149082 -4.0082264,-0.678329 0,-0.3534 0.1919306,-0.36583 1.3714834,-0.08882 0.616617,0.14481 0.653227,0.112781 0.531973,-0.465424 -0.07162,-0.341517 -0.184699,-0.88398 -0.251292,-1.205475 -0.217754,-1.051267 -1.0050984,-1.543354 -2.4693755,-1.543354 -2.421703,0 -3.9641983,1.713837 -3.3144427,3.682616 0.246387,0.746561 0.209711,1.002319 -0.3136164,2.187001 -1.3755197,3.11383 -0.900056,5.551033 1.3506791,6.923517 0.87008,0.53057 1.5360963,0.561277 2.5932715,0.119561 z m 11.968292,0.800387 c -0.260076,-0.260075 -0.472865,-0.685655 -0.472865,-0.94573 0,-0.586074 0.801646,-1.418594 1.365988,-1.418594 0.754499,0 1.471201,0.691075 1.471201,1.418594 0,1.242982 -1.476479,1.833575 -2.364324,0.94573 z M 21.8868,23.395713 c 0,-0.429958 -0.143163,-0.608174 -0.533031,-0.663534 -0.643227,-0.09135 -0.949201,0.517414 -0.520001,1.034572 0.442981,0.533758 1.053032,0.318805 1.053032,-0.371038 z m 5.841053,0.973974 C 25.933206,23.749806 24.84951,22.773884 23.896475,20.919344 23.128874,19.42564 23.06905,19.153276 23.070156,17.157327 c 0.0014,-2.526757 0.448411,-3.741921 1.992839,-5.417427 1.41225,-1.532112 2.938526,-2.1232895 5.196868,-2.0129257 3.655284,0.1786337 6.110847,2.4302087 6.590467,6.0429867 0.397979,2.9978 -0.477241,5.621975 -2.455952,7.363709 -1.849524,1.628015 -4.245514,2.072248 -6.666525,1.236017 z m 5.037652,-1.214901 c 4.498017,-2.231471 4.345134,-9.946935 -0.239246,-12.074001 -1.391549,-0.645655 -3.69531,-0.595456 -5.218268,0.113708 -2.824306,1.315128 -4.097768,4.842697 -3.037326,8.41359 0.44139,1.486318 2.318428,3.529042 3.645161,3.966917 1.319826,0.435597 3.506539,0.246124 4.849679,-0.420211 z M 29.45618,18.965841 c 0.245111,-0.900985 0.256518,-2.649119 0.02239,-3.42827 -0.15825,-0.526586 -0.120805,-0.65019 0.19695,-0.65019 0.468401,0 1.077513,1.336543 1.077513,2.364325 0,1.030311 -0.609051,2.364326 -1.079444,2.364326 -0.315378,0 -0.35888,-0.130109 -0.217392,-0.650191 z m 8.166396,5.223472 c -0.760151,-0.966374 -0.164176,-2.208957 1.05947,-2.208957 1.19408,0 1.747209,1.782123 0.766362,2.469133 -0.754684,0.528602 -1.262276,0.456273 -1.825832,-0.260176 z m 1.523792,-0.7936 c 0,-0.419063 -0.144102,-0.608404 -0.50188,-0.659452 -0.600935,-0.08574 -0.930525,0.573372 -0.528781,1.057445 0.423916,0.510786 1.030661,0.27649 1.030661,-0.397993 z m 5.873866,1.189971 c -2.956924,-0.628229 -4.650955,-2.442841 -4.677724,-5.01068 -0.01611,-1.545439 0.485605,-2.433144 1.735668,-3.071005 1.086827,-0.554567 1.085634,-0.549949 0.380809,-1.474022 -2.017391,-2.644933 -0.22736,-5.092205 3.882414,-5.3079087 3.504501,-0.1839355 5.823924,0.9363017 6.088056,2.9404197 0.111256,0.844158 0.0313,1.076444 -0.6297,1.829276 l -0.75714,0.862334 0.741458,0.623897 c 1.827957,1.538124 2.259881,3.969312 1.052587,5.924749 -1.299506,2.10479 -4.831491,3.317121 -7.816428,2.68294 z m 4.793013,-1.30052 c 2.080481,-0.867809 3.245751,-2.858346 2.713419,-4.635116 -0.326721,-1.090497 -1.923891,-2.58438 -3.621875,-3.387655 -1.395308,-0.660087 -2.164493,-1.683136 -1.466775,-1.950875 0.225465,-0.08652 0.509228,0.05989 0.731719,0.377544 1.230317,1.756522 4.0704,0.39862 3.19316,-1.526715 -0.416809,-0.914795 -1.599026,-1.369742 -3.854272,-1.483222 -4.116649,-0.207143 -5.984897,1.391152 -4.394521,3.759536 0.40849,0.608322 0.97212,0.975578 2.321507,1.512666 2.449827,0.975093 3.004751,1.39254 3.621913,2.724621 0.496462,1.071563 0.560803,1.124471 0.924796,0.760478 0.307976,-0.307974 0.452623,-0.3298 0.679845,-0.10258 0.227218,0.22722 0.159796,0.417465 -0.316886,0.894147 -0.73706,0.73706 -2.241504,0.999415 -2.900788,0.505858 -0.592932,-0.443882 -0.273693,-0.965903 0.47567,-0.777826 0.666088,0.167177 0.711498,-0.08623 0.202821,-1.131778 -0.493572,-1.014496 -1.29692,-1.548827 -2.80382,-1.864903 -1.080949,-0.226731 -1.432495,-0.204045 -2.366707,0.152733 -3.128657,1.194847 -1.999395,5.39284 1.735604,6.452034 1.330938,0.377436 3.884818,0.238439 5.12519,-0.278944 z"
               id="path181" /></g></g></g></g></g></svg>
