<?xml version="1.0" encoding="UTF-8" standalone="no"?>
<!-- Created with Inkscape (http://www.inkscape.org/) -->

<svg
   width="69.893196mm"
   height="15.51206mm"
   viewBox="0 0 69.893196 15.51206"
   version="1.1"
   id="svg1"
   xmlns="http://www.w3.org/2000/svg"
   xmlns:svg="http://www.w3.org/2000/svg">
  <defs
     id="defs1" />
  <g
     id="layer1"
     transform="translate(-224.86776,44.293574)">
    <g
       id="g10">
      <path
         style="fill:#ffffff;fill-opacity:1;stroke:none;stroke-width:1.297;stroke-opacity:1"
         d="m 228.26567,-28.996888 c -3.11658,-0.93948 -4.35765,-5.02686 -2.5827,-8.50603 0.37349,-0.7321 0.42111,-1.09737 0.24516,-1.88049 -0.43588,-1.93995 0.37496,-3.50631 2.26716,-4.37961 1.0427,-0.48124 2.64905,-0.58911 3.54766,-0.23823 0.63329,0.24728 1.53726,1.04705 1.71753,1.51957 0.0847,0.22201 0.23995,0.15347 0.52378,-0.23127 0.60872,-0.82511 2.14199,-1.50668 3.38945,-1.50668 2.97019,0 4.84357,2.24177 3.94999,4.72672 -0.32573,0.90582 -0.31663,1.07571 0.11002,2.05612 0.59912,1.37656 0.80632,3.97826 0.412,5.17308 -0.6795,2.05891 -3.12306,3.74412 -4.93584,3.40404 -1.07234,-0.20117 -2.19572,-1.13811 -2.81128,-2.34468 -0.26262,-0.51478 -0.52817,-0.93597 -0.59013,-0.93597 -0.0619,0 -0.26439,0.35332 -0.44987,0.78516 -0.86073,2.00403 -2.80104,2.95873 -4.79297,2.35827 z m 2.31641,-1.06222 c 1.29338,-0.54041 2.06068,-2.14771 2.41967,-5.06861 0.13938,-1.13411 0.12536,-1.16952 -0.3983,-1.00556 -1.60784,0.50343 -2.23797,-0.12619 -0.74895,-0.74834 1.54965,-0.64749 3.95075,-0.15465 3.95075,0.8109 0,0.34682 -0.4875,0.32632 -1.50259,-0.0632 -0.28241,-0.10834 -0.30847,0.16063 -0.15485,1.59838 0.348,3.25695 1.86826,5.09725 3.89644,4.71677 2.78271,-0.52204 3.9551,-4.04658 2.4567,-7.38547 -0.59815,-1.33287 -0.61057,-1.44066 -0.24689,-2.14392 1.07082,-2.07074 -0.28655,-3.90511 -2.88961,-3.90511 -0.62411,0 -1.43198,0.18295 -1.82001,0.41215 -0.75132,0.44383 -1.4303,1.6264 -1.4303,2.49117 0,0.54257 0.19347,0.56057 1.26833,0.11808 0.70821,-0.29156 0.52191,0.72126 -0.19254,1.04679 -1.35302,0.61647 -4.09561,0.15234 -4.09561,-0.69312 0,-0.36109 0.19611,-0.3738 1.40137,-0.0908 0.63007,0.14797 0.66748,0.11524 0.54359,-0.47557 -0.0732,-0.34896 -0.18873,-0.90325 -0.25678,-1.23176 -0.2225,-1.07418 -1.027,-1.57699 -2.5232,-1.57699 -2.47449,0 -4.05062,1.75119 -3.38669,3.76289 0.25175,0.76284 0.21428,1.02417 -0.32046,2.23468 -1.4055,3.18171 -0.91968,5.67203 1.38013,7.07443 0.88904,0.54214 1.56957,0.57351 2.6498,0.12217 z m 12.22917,0.81783 c -0.26573,-0.26574 -0.48316,-0.7006 -0.48316,-0.96634 0,-0.59885 0.81911,-1.44952 1.39576,-1.44952 0.77094,0 1.50328,0.70614 1.50328,1.44952 0,1.27008 -1.50867,1.87354 -2.41588,0.96634 z m 1.57031,-0.96965 c 0,-0.43933 -0.14628,-0.62144 -0.54464,-0.678 -0.65724,-0.0933 -0.9699,0.5287 -0.53134,1.05713 0.45263,0.54539 1.07598,0.32575 1.07598,-0.37913 z m 5.96839,0.9952 c -1.83377,-0.63339 -2.94109,-1.63058 -3.9149,-3.52555 -0.78433,-1.52626 -0.84546,-1.80456 -0.84433,-3.84402 0.001,-2.58184 0.45819,-3.82349 2.03628,-5.53553 1.44304,-1.5655 3.00257,-2.16956 5.31016,-2.05679 3.73496,0.18251 6.24405,2.48317 6.73412,6.17471 0.40665,3.06314 -0.48765,5.74452 -2.50949,7.52422 -1.88983,1.66351 -4.33805,2.11743 -6.81184,1.26296 z m 5.14746,-1.24138 c 4.59608,-2.28012 4.43985,-10.16376 -0.24447,-12.3372 -1.42187,-0.65973 -3.77586,-0.60844 -5.33201,0.11619 -2.88586,1.34379 -4.18709,4.94826 -3.10354,8.59699 0.45102,1.51872 2.36898,3.60598 3.72463,4.05339 1.3486,0.44509 3.58297,0.25149 4.95539,-0.42937 z m -3.38146,-4.28026 c 0.25045,-0.92062 0.26211,-2.70687 0.0228,-3.503 -0.1617,-0.53807 -0.12344,-0.66437 0.20124,-0.66437 0.47861,0 1.10101,1.36568 1.10101,2.41587 0,1.05277 -0.62233,2.41587 -1.10298,2.41587 -0.32225,0 -0.36671,-0.13295 -0.22213,-0.66437 z m 8.34441,5.33734 c -0.77671,-0.98744 -0.16776,-2.25711 1.08257,-2.25711 1.22011,0 1.78529,1.82097 0.78306,2.52295 -0.77112,0.54013 -1.28978,0.46623 -1.86563,-0.26584 z m 1.557,-0.8109 c 0,-0.4282 -0.14724,-0.62167 -0.51281,-0.67383 -0.61403,-0.0876 -0.95081,0.58587 -0.54031,1.0805 0.43317,0.52191 1.05312,0.28252 1.05312,-0.40667 z m 6.00193,1.21591 c -3.0214,-0.64192 -4.75235,-2.4961 -4.77971,-5.11991 -0.0165,-1.57912 0.4962,-2.48618 1.77351,-3.13795 1.11052,-0.56665 1.1093,-0.56194 0.38911,-1.50615 -2.06136,-2.70259 -0.23231,-5.2032 3.96704,-5.42361 3.58091,-0.18795 5.95089,0.95671 6.22077,3.00451 0.11369,0.86257 0.032,1.09991 -0.64343,1.86916 l -0.77364,0.88112 0.75763,0.63751 c 1.8678,1.57164 2.30914,4.05583 1.07552,6.0539 -1.32784,2.15067 -4.93681,3.38942 -7.9868,2.74142 z m 4.89748,-1.32887 c 2.12583,-0.88673 3.31651,-2.92065 2.77257,-4.73616 -0.33385,-1.11426 -1.96583,-2.64071 -3.70083,-3.4615 -1.42571,-0.67447 -2.21167,-1.71982 -1.49874,-1.9934 0.23037,-0.0884 0.52033,0.0612 0.74767,0.38578 1.25714,1.79481 4.15913,0.40731 3.26276,-1.56 -0.4259,-0.93474 -1.63388,-1.3996 -3.93829,-1.51556 -4.20638,-0.21165 -6.11536,1.42148 -4.49031,3.84149 0.4174,0.62159 0.99331,0.99685 2.37211,1.54565 2.50323,0.99634 3.07025,1.42289 3.70087,2.78401 0.50728,1.09492 0.57302,1.14898 0.94495,0.77705 0.31469,-0.31468 0.46249,-0.33699 0.69466,-0.10476 0.23217,0.23218 0.16328,0.42657 -0.32379,0.91364 -0.75313,0.75313 -2.29036,1.0212 -2.96403,0.51689 -0.60585,-0.45356 -0.27965,-0.98697 0.48605,-0.79479 0.6806,0.17082 0.72701,-0.0881 0.20724,-1.15644 -0.50433,-1.03662 -1.3252,-1.58259 -2.86495,-1.90556 -1.10451,-0.23167 -1.4637,-0.2085 -2.41828,0.15606 -3.19686,1.2209 -2.04298,5.5104 1.77343,6.59268 1.35995,0.38566 3.9695,0.24364 5.23691,-0.28503 z"
         id="path9" />
      <path
         id="path10"
         style="fill:#f999b7;fill-opacity:1;stroke-width:1.28894"
         d="m 282.54143,-44.289358 c -0.4003,-0.01341 -0.84137,0.0052 -1.33149,0.05529 -2.76363,0.279596 -4.63531,3.077036 -4.09903,6.127225 0.30401,1.729121 1.76854,3.561034 5.20871,6.514887 v 6.72e-4 c 1.70252,1.461858 3.22325,2.658403 3.379,2.660981 1.11401,0.01288 8.02489,-6.323042 8.66098,-7.940296 1.27576,-3.243619 -0.62371,-6.867217 -3.8073,-7.262893 -1.90441,-0.236662 -2.90891,-0.0077 -3.88855,0.883888 -0.76093,0.692519 -0.76217,0.692686 -1.43405,0.0052 -0.65739,-0.672592 -1.48735,-1.004778 -2.68827,-1.04507 z m -0.53554,0.680053 c 1.01027,-0.0025 2.04725,0.402883 2.93008,1.26821 l 0.93983,0.92119 1.05707,-0.989787 c 0.90026,-0.843015 1.32689,-0.986267 2.88211,-0.96848 2.16695,0.02475 3.35522,0.929142 3.95249,3.008661 0.74621,2.598041 -0.47284,4.535234 -5.36257,8.521783 -1.28058,1.044026 -2.4586,1.89627 -2.61835,1.894981 -0.47179,-0.0052 -2.06967,-1.357534 -4.86236,-4.116345 -3.00078,-2.96441 -3.61443,-4.301591 -2.91342,-6.347041 0.70127,-2.046133 2.31137,-3.187964 3.99512,-3.193172 z" />
    </g>
  </g>
</svg>
